<svg width="270" height="293" viewBox="0 0 270 293" fill="none" xmlns="http://www.w3.org/2000/svg">
<path d="M169.821 209.779C170.106 209.698 170.965 209.698 172.352 209.738C174.353 209.738 176.027 209.698 177.333 209.657C182.805 209.453 188.114 208.677 193.259 207.288C200.364 205.369 207.224 202.266 213.88 197.897C216.044 196.467 218.086 194.997 219.924 193.527L220.046 193.406C221.434 192.262 222.332 191.445 222.741 190.915C222.332 191.405 221.434 192.221 220.046 193.406L219.924 193.527C219.802 192.956 219.557 192.017 219.229 190.751C218.618 188.382 217.392 186.3 215.554 184.504C214.207 183.157 212.41 181.89 210.164 180.625C208.939 179.93 207.224 179.033 205.019 177.93C203.468 176.99 202.569 176.051 202.324 175.153C201.875 173.52 202.61 172.009 204.488 170.539C206.04 169.314 208.04 168.415 210.409 167.803C213.104 167.068 215.921 166.987 218.903 167.518C221.762 168.008 224.457 169.028 227.029 170.539C229.56 172.049 231.684 173.846 233.44 176.01C235.236 178.296 236.42 180.706 236.91 183.197L237.032 183.605C235.685 184.095 234.256 184.667 232.826 185.32C234.296 184.667 235.685 184.095 237.032 183.605C250.752 178.786 260.47 182.83 266.391 195.815C267.697 199.409 268.228 202.021 267.901 203.574C267.535 205.33 266.84 206.35 265.778 206.636C265.124 206.8 263.941 206.595 262.266 206.065C261.205 205.738 259.367 205.085 256.712 204.145C251.077 202.39 246.055 202.104 241.686 203.246C239.89 203.736 238.296 204.593 236.867 205.86C235.765 206.84 234.457 208.391 232.987 210.475C232.131 211.7 230.661 213.824 228.577 216.885C226.495 219.662 224.331 222.276 222.003 224.644C218.409 228.36 215.143 231.381 212.243 233.71C207.997 237.059 203.587 239.794 198.972 241.835C195.093 243.55 190.111 245.715 183.986 248.287C182.925 248.696 182.026 249.103 181.291 249.471C180.679 249.022 180.107 248.614 179.536 248.165C176.596 245.879 174.146 243.51 172.226 240.938C169.572 237.467 167.612 233.383 166.346 228.647C165.202 224.318 165.162 220.031 166.224 215.866C166.633 214.192 167.204 212.762 167.939 211.62C168.51 210.599 169.164 209.946 169.818 209.783L169.821 209.779Z" fill="#6FBBEE"/>
<path d="M181.295 251.592C181.621 251.592 181.906 251.51 182.193 251.387C182.888 251.061 183.745 250.652 184.725 250.285H184.765C190.85 247.713 195.872 245.508 199.751 243.793C204.488 241.669 209.102 238.853 213.472 235.423C216.452 233.054 219.801 229.951 223.436 226.194C225.804 223.743 228.091 221.048 230.172 218.232L230.213 218.191C232.295 215.21 233.765 213.046 234.583 211.821C235.971 209.861 237.154 208.431 238.134 207.575C239.319 206.513 240.625 205.819 242.095 205.41C246.056 204.349 250.711 204.634 255.978 206.267C258.592 207.206 260.469 207.818 261.532 208.186C263.656 208.881 265.084 209.085 266.187 208.84H266.268C267.574 208.269 269.249 207.166 269.862 203.981C270.271 201.98 269.781 199.162 268.27 195.079C268.27 195.039 268.23 194.998 268.23 194.957C265.085 188.016 260.758 183.361 255.408 181.156C250.589 179.155 244.913 179.115 238.503 180.992C237.808 178.828 236.666 176.705 235.073 174.745C233.194 172.418 230.826 170.376 228.131 168.784C225.355 167.15 222.415 166.048 219.311 165.477C216.045 164.906 212.9 165.028 209.92 165.803C207.306 166.498 205.06 167.559 203.264 168.907C200.038 171.438 199.915 173.971 200.364 175.686C200.773 177.115 201.916 178.422 203.958 179.687C203.999 179.728 204.039 179.728 204.122 179.769C206.246 180.87 207.961 181.729 209.186 182.423C211.268 183.567 212.942 184.75 214.127 185.975C215.678 187.526 216.699 189.282 217.271 191.284C217.435 191.855 217.557 192.304 217.638 192.754C216.127 193.938 214.494 195.081 212.778 196.224C206.368 200.43 199.631 203.493 192.771 205.33C187.789 206.677 182.562 207.412 177.295 207.617C175.988 207.657 174.355 207.698 172.395 207.698C170.19 207.617 169.659 207.698 169.333 207.779H169.292C168.108 208.105 167.046 209.045 166.107 210.596C165.291 211.902 164.637 213.536 164.188 215.415C163.044 219.906 163.086 224.561 164.309 229.216C165.656 234.198 167.739 238.608 170.556 242.242C172.598 244.897 175.171 247.468 178.273 249.837C178.885 250.287 179.498 250.736 180.11 251.184C180.436 251.47 180.845 251.593 181.295 251.593V251.592ZM183.173 246.487C182.562 246.732 182.03 246.977 181.499 247.181C181.254 246.977 180.968 246.815 180.723 246.61C177.947 244.446 175.578 242.159 173.782 239.791C171.332 236.565 169.453 232.645 168.27 228.194C167.209 224.234 167.168 220.273 168.148 216.434C168.515 214.964 169.005 213.739 169.618 212.759C169.618 212.759 169.618 212.718 169.659 212.718C170.026 212.106 170.271 211.819 170.394 211.738C170.639 211.738 171.17 211.698 172.354 211.738H172.395C174.395 211.738 176.11 211.698 177.499 211.657C183.094 211.453 188.606 210.636 193.874 209.207C201.143 207.247 208.289 204.021 215.066 199.571C217.271 198.101 219.353 196.59 221.272 195.079L221.394 194.957C221.435 194.917 221.475 194.917 221.475 194.876C223.436 193.242 224.089 192.549 224.375 192.141C225.069 191.242 224.906 189.976 224.008 189.282C223.109 188.587 221.844 188.751 221.149 189.649C221.149 189.689 221.109 189.689 221.068 189.73C220.333 187.239 218.944 184.953 217.026 183.033C215.556 181.563 213.596 180.175 211.187 178.828C209.962 178.133 208.206 177.236 206.082 176.133C204.531 175.153 204.367 174.622 204.367 174.581C204.286 174.296 204.081 173.48 205.837 172.091C207.184 171.07 208.899 170.254 211.023 169.681C213.392 169.027 215.964 168.946 218.659 169.396C221.23 169.845 223.763 170.785 226.09 172.172C228.376 173.642 230.336 175.316 231.889 177.276C233.195 178.91 234.094 180.625 234.665 182.34C233.808 182.667 232.95 183.035 232.051 183.442C231.031 183.892 230.581 185.117 231.031 186.137C231.48 187.158 232.705 187.607 233.726 187.158C235.115 186.504 236.461 185.973 237.768 185.524C244.057 183.278 249.447 183.074 253.815 184.912C258.184 186.749 261.777 190.669 264.472 196.591C266.023 200.756 266.023 202.512 265.901 203.166C265.737 204.065 265.452 204.555 265.247 204.636C265.084 204.636 264.431 204.595 262.838 204.105C261.777 203.779 259.939 203.125 257.326 202.226C257.299 202.226 257.272 202.213 257.245 202.186C251.243 200.307 245.811 200.021 241.075 201.287C238.951 201.858 237.073 202.921 235.439 204.391C234.214 205.493 232.868 207.127 231.274 209.332C231.274 209.332 231.274 209.372 231.234 209.372C230.417 210.597 228.947 212.721 226.864 215.742C224.864 218.437 222.699 220.969 220.494 223.297C216.983 226.931 213.757 229.912 210.898 232.198C206.814 235.424 202.487 238.078 198.036 240.038C194.239 241.753 189.216 243.918 183.173 246.49V246.487Z" fill="black"/>
<path d="M126.189 265.127C126.393 267.944 126.393 270.477 126.229 272.722C125.168 277.704 123.494 281.951 121.289 285.463C119.043 288.974 116.634 290.608 114.102 290.281C111.531 289.996 108.957 288.566 106.385 285.995C103.854 283.423 101.69 280.4 99.9341 276.848C99.6485 276.318 99.4035 275.787 99.1585 275.256C97.6072 271.622 96.4228 268.232 95.6066 265.171C94.2598 257.82 93.4421 250.798 93.1159 244.141C93.0347 241.895 92.9941 240.466 92.9941 239.854L122.843 237.812C122.721 244.754 123.823 253.9 126.192 265.13L126.189 265.127Z" fill="#6FBBEE"/>
<path d="M114.633 292.405C117.695 292.405 120.473 290.445 122.923 286.606C125.292 282.89 127.047 278.357 128.19 273.171C128.19 273.09 128.23 273.007 128.23 272.926C128.435 270.599 128.435 267.904 128.23 265.005C128.23 264.923 128.23 264.841 128.19 264.719C125.904 253.653 124.76 244.588 124.883 237.81C124.883 236.667 123.984 235.769 122.882 235.729H122.842C121.74 235.729 120.801 236.627 120.801 237.729C120.719 244.794 121.862 254.104 124.19 265.415C124.354 268.029 124.394 270.355 124.19 272.439C123.169 277.094 121.618 281.136 119.535 284.403C117.779 287.18 116.024 288.487 114.309 288.283C112.227 288.038 110.022 286.772 107.817 284.567C105.448 282.198 103.407 279.258 101.732 275.951V275.911C101.487 275.421 101.242 274.931 101.038 274.441C99.5271 270.929 98.3832 267.662 97.6076 264.722C96.2608 257.535 95.4432 250.594 95.1981 244.019C95.1169 241.814 95.0763 240.385 95.0763 239.773C95.0357 238.629 94.1369 237.773 92.9945 237.773C91.8507 237.813 90.9533 238.712 90.9939 239.854C90.9939 240.508 91.0345 241.896 91.1577 244.183C91.4433 250.962 92.3015 258.149 93.6483 265.539C93.6483 265.58 93.6889 265.661 93.6889 265.703C94.5457 268.848 95.7708 272.359 97.3234 276.075C97.5684 276.646 97.854 277.259 98.1396 277.79C99.9765 281.505 102.264 284.772 104.959 287.467C107.818 290.366 110.839 291.999 113.861 292.367C114.065 292.367 114.351 292.407 114.636 292.407L114.633 292.405Z" fill="black"/>
<path d="M76.5579 178.978C74.1078 185.512 72.474 192.168 71.6172 199.028C71.3316 201.233 71.0866 203.438 70.8416 205.603C70.4748 208.134 71.046 210.952 72.5566 214.055C73.9454 216.505 75.8229 218.955 78.0685 221.323C80.3548 223.733 82.4786 224.958 84.3981 224.958C86.3175 224.958 88.482 223.856 90.8494 221.651C93.0545 219.61 94.6463 217.772 95.7089 216.139C97.3427 213.608 98.2808 211.158 98.5678 208.748C99.0578 203.032 100.119 197.274 101.712 191.476C103.304 185.677 106.817 179.309 112.288 172.366L90.4826 161.219C83.9487 165.629 79.3356 171.55 76.5579 178.981V178.978Z" fill="#6FBBEE"/>
<path d="M84.3986 226.999C86.9298 226.999 89.5031 225.734 92.2388 223.161C94.5656 220.996 96.2806 219.077 97.4245 217.28C99.2207 214.504 100.283 211.726 100.61 209.031V208.95C101.1 203.396 102.12 197.68 103.671 192.004C105.182 186.492 108.612 180.285 113.88 173.588C114.575 172.689 114.411 171.424 113.554 170.729C112.655 170.035 111.39 170.199 110.695 171.056C105.101 178.201 101.426 184.857 99.7513 190.901C98.1595 196.822 97.0969 202.742 96.5662 208.501C96.3212 210.542 95.4644 212.747 93.9944 214.993C93.0144 216.503 91.5037 218.218 89.4625 220.097C87.543 221.894 85.7874 222.833 84.3986 222.833C83.0518 222.833 81.3773 221.812 79.5391 219.852C77.3746 217.607 75.6596 215.278 74.3128 212.992C73.0065 210.297 72.5165 207.888 72.8021 205.806V205.725C73.0471 203.56 73.2921 201.355 73.5777 199.15C74.4346 192.494 76.0684 185.92 78.4372 179.55C81.0511 172.568 85.4612 166.932 91.6269 162.767C92.5664 162.156 92.8114 160.848 92.1575 159.951C91.5457 159.011 90.2381 158.766 89.3407 159.42C82.4805 164.156 77.5398 170.486 74.6404 178.245C72.1497 184.901 70.4753 191.761 69.5765 198.743C69.2909 200.948 69.0458 203.153 68.8008 205.317C68.3514 208.217 69.0052 211.442 70.7203 214.913C70.7203 214.954 70.7609 214.994 70.7609 215.035C72.2309 217.607 74.191 220.22 76.6004 222.711C79.2955 225.611 81.8267 226.957 84.4 226.998L84.3986 226.999Z" fill="black"/>
<path d="M135.547 132.888C135.752 132.888 135.956 132.848 136.159 132.848C136.037 132.848 135.955 132.888 135.833 132.888H135.547ZM136.159 132.848H136.73C136.445 132.888 136.118 132.888 135.831 132.888C135.913 132.848 136.036 132.848 136.158 132.848M114.271 139.218C114.801 138.932 115.373 138.687 115.945 138.402C122.07 135.462 128.645 133.625 135.586 132.93H135.627C135.708 132.93 135.791 132.89 135.913 132.89C136.198 132.89 136.524 132.849 136.811 132.849H141.833C142.283 132.849 142.69 132.89 143.14 132.89H143.63C149.06 133.42 154.246 134.645 159.227 136.524C160.697 137.095 162.127 137.709 163.556 138.403C181.563 147.019 192.712 160.943 196.999 180.095C198.428 189.895 199.285 199.409 199.613 208.76C199.776 217.785 198.021 225.42 194.304 231.627C186.79 244.203 171.314 251.063 147.916 252.125C146.815 252.165 145.711 252.206 144.568 252.246H143.914L141.709 252.287H137.829L135.624 252.246H134.97C133.99 252.206 133.01 252.206 132.071 252.165L123.741 251.511L115.901 250.286C115.534 250.205 115.165 250.165 114.839 250.082C112.022 249.47 109.368 248.735 106.918 247.877C96.9539 244.447 89.7675 239.016 85.3168 231.625C81.6011 225.419 79.8049 217.783 79.9673 208.759C80.2935 199.449 81.1517 189.893 82.5812 180.093C86.6231 161.513 97.2409 147.876 114.268 139.219L114.271 139.218Z" fill="#6FBBEE"/>
<path d="M137.792 254.369H141.712L143.917 254.328H144.611C145.755 254.288 146.897 254.247 148.001 254.206C159.925 253.635 169.969 251.593 177.891 248.081C185.977 244.487 192.102 239.302 196.062 232.687C199.901 226.153 201.819 218.109 201.616 208.717V208.676C201.29 199.325 200.432 189.606 199.002 179.807C199.002 179.767 199.002 179.726 198.962 179.644C196.757 169.803 192.755 161.187 186.997 154.001C181.24 146.855 173.645 140.975 164.416 136.524C162.946 135.83 161.435 135.177 159.925 134.605C154.82 132.645 149.43 131.379 143.837 130.848H143.673C143.551 130.848 143.428 130.848 143.347 130.808H143.225L142 130.767C141.836 130.767 141.633 130.727 141.429 130.727H138.08C137.958 130.727 137.794 130.727 137.671 130.767L136.691 130.808H135.956C135.834 130.808 135.711 130.848 135.589 130.848C135.508 130.848 135.385 130.889 135.304 130.889C128.158 131.624 121.338 133.503 115.009 136.565C114.438 136.85 113.865 137.136 113.294 137.422C104.555 141.872 97.3686 147.712 91.8972 154.734C86.4259 161.758 82.587 170.17 80.4632 179.683C80.4632 179.723 80.4226 179.764 80.4226 179.847C78.9932 189.647 78.0957 199.364 77.8087 208.715V208.756C77.6449 218.147 79.5238 226.192 83.4438 232.726C88.0989 240.566 95.7347 246.323 106.147 249.876C108.678 250.733 111.456 251.51 114.313 252.122C114.68 252.203 115.048 252.286 115.374 252.326H115.456L123.296 253.551H123.46L131.749 254.205H131.83C132.81 254.246 133.79 254.246 134.77 254.286H135.465L137.792 254.367C137.765 254.367 137.765 254.367 137.792 254.367V254.369ZM141.671 250.285H137.792L135.587 250.244H134.933C133.993 250.204 133.013 250.204 132.074 250.163L123.908 249.509L116.149 248.284C115.822 248.203 115.495 248.163 115.169 248.08C112.473 247.509 109.86 246.774 107.492 245.956C98.0182 242.73 91.1174 237.545 86.9523 230.561C83.4411 224.681 81.7666 217.372 81.8884 208.756C82.2146 199.609 83.0728 190.054 84.4603 180.418C86.4609 171.516 90.0548 163.676 95.1173 157.142C100.222 150.608 106.959 145.137 115.125 140.972C115.656 140.686 116.186 140.441 116.759 140.156C122.639 137.339 129.009 135.541 135.665 134.889H135.829C135.869 134.889 135.951 134.889 135.993 134.848C136.278 134.848 136.523 134.808 136.809 134.808H137.87C137.951 134.808 138.034 134.808 138.115 134.808H141.75L143.015 134.848C143.096 134.848 143.22 134.848 143.341 134.889H143.463C148.689 135.379 153.713 136.563 158.49 138.4C159.919 138.931 161.307 139.544 162.695 140.196C171.392 144.361 178.498 149.873 183.847 156.529C189.197 163.185 192.953 171.229 194.994 180.457C196.383 190.093 197.28 199.608 197.566 208.795C197.73 217.411 196.015 224.72 192.544 230.601C189.033 236.481 183.519 241.136 176.252 244.361C168.78 247.668 159.225 249.628 147.831 250.16C146.77 250.201 145.667 250.242 144.565 250.282H141.666L141.671 250.285Z" fill="black"/>
<path d="M136.323 132.848H136.731C136.446 132.888 136.12 132.888 135.833 132.888C135.711 132.888 135.628 132.929 135.506 132.929V132.888C135.792 132.848 136.037 132.848 136.323 132.848Z" fill="#A87D4F"/>
<path d="M114.272 139.216C114.803 138.931 115.374 138.686 115.947 138.4C122.072 135.46 128.646 133.623 135.588 132.929H135.628C135.709 132.929 135.792 132.888 135.914 132.888C136.199 132.888 136.526 132.848 136.813 132.848H141.835C142.284 132.848 142.691 132.888 143.141 132.888H143.631C149.061 133.419 154.247 134.644 159.229 136.523C137.587 168.128 133.831 206.716 147.918 252.162C146.816 252.203 145.713 252.244 144.569 252.284H143.915L141.71 252.325H137.83L135.625 252.284H134.972C133.992 252.244 133.012 252.244 132.072 252.203L123.742 251.549L115.902 250.324C115.535 250.243 115.167 250.202 114.841 250.12C112.024 249.508 109.369 248.773 106.919 247.915C87.8913 218.269 90.382 182.05 114.269 139.216H114.272Z" fill="#E6FBFF"/>
<path d="M137.792 254.369H141.712L143.917 254.328H144.611C145.755 254.288 146.897 254.247 148.001 254.206C159.925 253.635 169.969 251.593 177.891 248.081C185.977 244.487 192.102 239.302 196.062 232.687C199.901 226.153 201.819 218.109 201.616 208.717V208.676C201.29 199.325 200.432 189.606 199.002 179.807C199.002 179.767 199.002 179.726 198.962 179.644C196.757 169.803 192.755 161.187 186.997 154.001C181.24 146.855 173.645 140.975 164.416 136.524C162.946 135.83 161.435 135.177 159.925 134.605C154.82 132.645 149.43 131.379 143.837 130.848H143.673C143.551 130.848 143.469 130.848 143.347 130.808H143.225L142 130.767C141.836 130.767 141.633 130.727 141.429 130.727H138.08C137.958 130.727 137.794 130.727 137.671 130.767L136.691 130.808H136.201C135.997 130.808 135.792 130.848 135.589 130.848C135.508 130.848 135.426 130.889 135.304 130.889C128.158 131.624 121.338 133.503 115.009 136.565C114.438 136.85 113.865 137.136 113.294 137.422C104.555 141.872 97.3686 147.712 91.8972 154.734C86.4259 161.758 82.587 170.17 80.4632 179.683C80.4632 179.723 80.4226 179.764 80.4226 179.847C78.9932 189.647 78.0957 199.364 77.8087 208.715V208.756C77.6449 218.147 79.5238 226.192 83.4438 232.726C88.0989 240.566 95.7347 246.323 106.147 249.876C108.678 250.733 111.456 251.51 114.313 252.122C114.68 252.203 115.048 252.286 115.374 252.326H115.456L123.296 253.551H123.46L131.749 254.205H131.83C132.81 254.246 133.79 254.246 134.77 254.286H135.465L137.792 254.367C137.765 254.367 137.765 254.367 137.792 254.367V254.369ZM141.671 250.285H137.792L135.587 250.244H134.933C133.993 250.204 133.013 250.204 132.074 250.163L123.908 249.509L116.149 248.284C115.822 248.203 115.495 248.163 115.169 248.08C112.473 247.509 109.86 246.774 107.492 245.956C98.0182 242.73 91.1174 237.545 86.9523 230.561C83.4411 224.681 81.7666 217.372 81.8884 208.756C82.2146 199.609 83.0728 190.054 84.4603 180.418C86.4609 171.516 90.0548 163.676 95.1173 157.142C100.222 150.608 106.959 145.137 115.125 140.972C115.656 140.686 116.186 140.441 116.759 140.156C122.639 137.339 129.009 135.541 135.665 134.889H135.829C135.869 134.889 135.951 134.889 135.993 134.848C136.278 134.848 136.523 134.808 136.809 134.808H137.87C137.951 134.808 138.034 134.808 138.115 134.808H141.75L143.015 134.848C143.096 134.848 143.22 134.848 143.341 134.889H143.463C148.689 135.379 153.713 136.563 158.49 138.4C159.919 138.931 161.307 139.544 162.695 140.196C171.392 144.361 178.498 149.873 183.847 156.529C189.197 163.185 192.953 171.229 194.994 180.457C196.383 190.093 197.28 199.608 197.566 208.795C197.73 217.411 196.015 224.72 192.544 230.601C189.033 236.481 183.519 241.136 176.252 244.361C168.78 247.668 159.225 249.628 147.831 250.16C146.77 250.201 145.667 250.242 144.565 250.282H141.666L141.671 250.285Z" fill="black"/>
<path d="M185.109 265.125C185.313 267.942 185.313 270.475 185.149 272.72C184.088 277.702 182.414 281.949 180.209 285.461C177.963 288.972 175.554 290.606 173.022 290.279C170.45 289.994 167.877 288.564 165.305 285.993C162.774 283.421 160.61 280.398 158.854 276.846C158.568 276.316 158.323 275.785 158.078 275.254C156.527 271.62 155.343 268.23 154.527 265.169C153.18 257.818 152.362 250.796 152.036 244.139C151.955 241.893 151.914 240.464 151.914 239.852L181.763 237.811C181.641 244.752 182.743 253.898 185.112 265.128L185.109 265.125Z" fill="#6FBBEE"/>
<path d="M173.553 292.403C176.615 292.403 179.393 290.443 181.843 286.604C184.212 282.888 185.967 278.355 187.11 273.169C187.11 273.088 187.15 273.005 187.15 272.924C187.355 270.597 187.355 267.902 187.15 265.003C187.15 264.921 187.15 264.839 187.11 264.717C184.824 253.651 183.68 244.586 183.803 237.808C183.803 236.665 182.904 235.767 181.802 235.727C180.658 235.727 179.761 236.625 179.72 237.727C179.639 244.792 180.782 254.102 183.11 265.413C183.274 268.027 183.314 270.354 183.11 272.437C182.089 277.092 180.538 281.134 178.455 284.401C176.699 287.178 174.944 288.485 173.229 288.281C171.147 288.036 168.942 286.77 166.737 284.565C164.368 282.196 162.326 279.256 160.652 275.949V275.909C160.407 275.419 160.162 274.929 159.958 274.439C158.447 270.928 157.303 267.66 156.528 264.72C155.181 257.533 154.363 250.592 154.118 244.018C154.037 241.812 153.996 240.383 153.996 239.771C153.956 238.669 153.057 237.771 151.955 237.771H151.914C150.771 237.811 149.873 238.71 149.914 239.852C149.914 240.506 149.954 241.894 150.078 244.181C150.363 250.96 151.221 258.147 152.568 265.537C152.568 265.578 152.609 265.659 152.609 265.701C153.466 268.846 154.691 272.357 156.243 276.073C156.488 276.644 156.774 277.257 157.06 277.788C158.896 281.503 161.184 284.77 163.879 287.465C166.738 290.364 169.759 291.997 172.78 292.365C172.985 292.365 173.271 292.405 173.556 292.405L173.553 292.403Z" fill="black"/>
<path d="M186.744 178.978C189.195 185.512 190.828 192.168 191.685 199.028C191.971 201.233 192.216 203.438 192.461 205.603C192.828 208.134 192.256 210.952 190.746 214.055C189.357 216.505 187.479 218.955 185.234 221.323C182.948 223.733 180.824 224.958 178.904 224.958C176.985 224.958 174.82 223.856 172.453 221.651C170.248 219.61 168.614 217.772 167.593 216.139C165.96 213.608 165.022 211.158 164.735 208.748C164.245 203.032 163.183 197.274 161.59 191.476C159.998 185.677 156.486 179.309 151.014 172.366L172.82 161.219C179.354 165.629 183.967 171.55 186.744 178.981V178.978Z" fill="#6FBBEE"/>
<path d="M178.905 227C181.437 227 184.01 225.611 186.705 222.753C189.114 220.222 191.074 217.649 192.544 215.036C192.585 214.996 192.585 214.955 192.585 214.914C194.3 211.444 194.912 208.218 194.505 205.319C194.259 203.154 194.014 200.909 193.729 198.744C192.83 191.762 191.115 184.861 188.665 178.246C185.766 170.487 180.825 164.159 173.965 159.545C173.025 158.933 171.76 159.178 171.148 160.075C170.536 161.015 170.781 162.28 171.678 162.892C177.804 167.057 182.254 172.692 184.868 179.674C187.237 186.004 188.869 192.619 189.728 199.275C190.013 201.439 190.258 203.685 190.503 205.849V205.93C190.829 208.012 190.299 210.422 188.993 213.117C187.686 215.403 185.931 217.691 183.766 219.977C181.929 221.937 180.255 222.958 178.907 222.958C177.518 222.958 175.762 222.018 173.843 220.222C171.802 218.303 170.249 216.587 169.269 215.077C167.84 212.831 166.942 210.626 166.697 208.585C166.166 202.786 165.105 196.865 163.512 190.985C161.878 184.941 158.203 178.245 152.568 171.14C151.874 170.241 150.567 170.119 149.709 170.813C148.81 171.508 148.688 172.814 149.383 173.672C154.65 180.369 158.08 186.575 159.592 192.088C161.143 197.764 162.164 203.48 162.654 209.034V209.116C162.98 211.811 164.043 214.587 165.839 217.364C167.023 219.161 168.698 221.121 171.065 223.285C173.801 225.735 176.374 226.96 178.905 227.001V227Z" fill="black"/>
<path d="M189.635 56.3027C193.229 57.3234 197.026 58.589 201.11 60.1822C210.91 64.0211 220.465 68.798 229.693 74.5143C239.329 80.4757 247.047 86.5196 252.804 92.6447C259.134 99.3817 262.278 105.426 262.278 110.816C262.278 114.286 261.094 116.86 258.726 118.533C256.726 119.962 253.786 120.819 249.825 121.064C247.294 121.228 243.455 121.186 238.31 120.9C232.798 120.615 228.959 120.491 226.754 120.574C218.098 120.983 209.482 122.983 200.907 126.618C197.721 128.007 194.905 129.394 192.455 130.864C193.108 128.904 193.72 126.903 194.291 124.862C195.231 120.657 196.17 116.368 197.027 112.041C199.354 100.649 199.477 89.4191 197.353 78.3938C195.802 70.5131 193.229 63.1223 189.636 56.3027H189.635Z" fill="#6FBBEE"/>
<path d="M192.45 132.945C192.817 132.945 193.144 132.864 193.471 132.66C195.839 131.271 198.616 129.883 201.72 128.535C210.009 125.024 218.461 123.064 226.832 122.655C228.956 122.574 232.793 122.696 238.183 122.981C243.492 123.267 247.33 123.307 249.984 123.145C254.354 122.859 257.62 121.879 259.948 120.205C262.888 118.123 264.358 114.979 264.358 110.814C264.358 104.852 261.052 98.4821 254.313 91.2538C248.474 85.0068 240.552 78.7991 230.793 72.7566C221.482 66.9576 211.765 62.0995 201.882 58.22C197.758 56.6282 193.837 55.28 190.203 54.2594C189.101 53.9737 187.998 54.5856 187.672 55.6888C187.386 56.7906 187.998 57.8938 189.101 58.22C192.612 59.2001 196.411 60.5063 200.412 62.0589C210.048 65.8152 219.563 70.5935 228.669 76.2286C238.101 82.0682 245.737 88.0701 251.331 94.0314C257.252 100.361 260.273 105.996 260.273 110.773C260.273 113.549 259.374 115.55 257.578 116.817C255.904 118.001 253.291 118.736 249.738 118.981C247.328 119.145 243.532 119.103 238.468 118.818C232.833 118.532 228.994 118.409 226.707 118.491C217.847 118.9 208.905 120.982 200.166 124.657C196.899 126.046 194 127.516 191.469 129.027C190.489 129.598 190.162 130.863 190.734 131.803C191.06 132.578 191.714 132.947 192.449 132.947L192.45 132.945Z" fill="black"/>
<path d="M11.8799 58.6486C13.5137 56.9335 15.3099 55.3823 17.2294 54.0341C23.8851 49.379 31.1947 46.0301 39.1973 44.0294C41.1573 43.2538 43.2812 42.3956 45.4862 41.4156C51.4475 38.7611 57.4915 35.6587 63.4934 32.1054C64.9634 31.2486 66.8829 29.9003 69.2503 28.1041C72.2716 25.4496 75.4567 22.959 78.7243 20.6727C84.8089 16.4264 91.3414 12.8326 98.2842 9.85189C101.469 8.50506 104.654 7.36124 107.88 6.34062C116.905 3.56435 126.215 2.13492 135.811 2.01172C148.223 1.84792 160.433 3.40055 172.316 6.70742C176.073 7.97305 179.707 9.68809 183.218 11.7713C190.977 16.4264 197.469 22.6734 202.736 30.473C208.003 38.3131 211.597 47.0927 213.435 56.7291C214.13 60.323 214.579 63.9155 214.742 67.5094C215.068 74.0433 214.537 80.6571 213.19 87.3548C212.374 91.2749 211.556 95.1138 210.7 98.9513C201.553 131.495 182.566 150.81 153.696 156.854C136.831 160.365 116.578 159.385 92.9766 153.873L91.2616 153.383C77.7863 150.688 64.9242 146.359 52.5928 140.48C49.9383 139.174 47.2433 137.909 44.5482 136.641C37.4024 132.966 30.8279 128.352 24.9072 122.799C19.7214 117.98 15.1069 112.673 11.0244 106.874C5.91993 99.2789 3.02047 91.7243 2.36806 84.1711C2.24626 83.0273 2.20425 81.8849 2.20425 80.7411C2.20425 78.8216 2.40867 76.9442 2.77547 75.1059V75.0653C3.59169 71.064 5.30672 67.2658 7.87998 63.5501C7.92058 63.4689 7.96118 63.4283 8.00178 63.3457C9.10361 61.7538 10.4112 60.2012 11.8813 58.65L11.8799 58.6486Z" fill="#6FBBEE"/>
<path d="M132.381 160.937C140.14 160.937 147.448 160.242 154.146 158.813C168.927 155.709 181.341 149.136 191.059 139.212C200.736 129.372 208.005 115.977 212.619 99.4809C212.619 99.4403 212.619 99.3997 212.66 99.3997C213.517 95.5608 214.375 91.6407 215.191 87.7626C216.58 80.943 217.111 74.1249 216.783 67.4271C216.619 63.7115 216.171 59.9958 215.436 56.3207C213.557 46.4799 209.842 37.3741 204.411 29.3701C199.021 21.3255 192.243 14.8336 184.28 10.0553C180.686 7.89083 176.889 6.13519 173.01 4.82896C172.969 4.82896 172.929 4.78836 172.888 4.78836C160.842 1.44089 148.347 -0.15235 135.77 0.0114535C126.011 0.133256 116.415 1.64529 107.269 4.46215C103.962 5.48277 100.694 6.6672 97.4683 8.01403C90.4444 10.9947 83.748 14.7104 77.5417 19.0393C74.2348 21.3255 71.0077 23.8582 67.9459 26.5532C65.7002 28.2683 63.8214 29.5745 62.4339 30.3921C56.4726 33.8628 50.5099 36.9667 44.5891 39.5791C42.4653 40.5186 40.3835 41.3754 38.5046 42.1104C30.3382 44.1516 22.7837 47.6223 15.9641 52.36C13.9229 53.7894 12.044 55.4219 10.329 57.2195L10.2884 57.2601C8.77775 58.852 7.38892 60.4858 6.24649 62.1602C6.20589 62.2414 6.1247 62.324 6.0827 62.4052C3.34704 66.2847 1.50879 70.4092 0.651975 74.6555C0.651975 74.6961 0.651969 74.7367 0.611369 74.7773C0.202559 76.7374 -0.000444327 78.738 -0.000444327 80.7792C-0.000444327 82.0043 0.0401627 83.2293 0.163365 84.4137C0.857781 92.2539 3.91964 100.216 9.18796 108.056C9.18796 108.056 9.18797 108.097 9.22857 108.097C13.3531 114.017 18.13 119.448 23.3983 124.348C29.4422 129.983 36.2198 134.76 43.5293 138.518C43.5699 138.518 43.5699 138.559 43.6105 138.559C46.3056 139.824 49.0006 141.09 51.6145 142.397C64.0272 148.359 77.1763 152.728 90.6922 155.464L92.3666 155.913H92.4072C104.289 158.69 115.478 160.323 125.645 160.854C128.014 160.895 130.219 160.935 132.382 160.935L132.381 160.937ZM208.657 98.4616C204.207 114.304 197.306 127.045 188.118 136.395C183.544 141.051 178.277 144.971 172.52 147.992C166.721 151.054 160.27 153.341 153.247 154.811C145.04 156.527 135.852 157.138 125.93 156.648C116.008 156.158 105.063 154.524 93.4264 151.829L91.7114 151.38C91.6708 151.38 91.6302 151.38 91.5896 151.339C78.3593 148.685 65.4972 144.357 53.4107 138.559C50.7563 137.252 48.0612 135.987 45.3662 134.72C38.4248 131.126 31.9735 126.594 26.1745 121.204C21.1106 116.508 16.5381 111.282 12.5774 105.606C7.67734 98.337 4.90108 91.0695 4.24726 83.9237C4.16606 82.8219 4.08345 81.7187 4.08345 80.6574C4.08345 78.9018 4.24726 77.1462 4.61407 75.4311V75.3499C5.38969 71.6748 6.98292 68.081 9.39097 64.6509C9.43158 64.6103 9.43157 64.5697 9.47217 64.5291C9.47217 64.4885 9.51278 64.4885 9.51278 64.4479C10.574 62.9372 11.799 61.4672 13.1879 59.9972L13.2284 59.9566C14.7391 58.3647 16.4541 56.8947 18.2504 55.5871C24.6611 51.0958 31.8069 47.8281 39.5252 45.9101C39.6064 45.8695 39.689 45.8695 39.7702 45.8289C41.7709 45.0532 43.9353 44.1544 46.181 43.1744C52.1829 40.4793 58.3487 37.3349 64.3926 33.783C65.9438 32.8436 67.9039 31.4968 70.3539 29.6585C70.3945 29.6179 70.4351 29.6179 70.4757 29.5773C73.4564 26.9635 76.5603 24.5134 79.7859 22.3083C85.7473 18.1433 92.1986 14.5914 98.937 11.6919C102.041 10.3857 105.184 9.24186 108.369 8.26184C117.149 5.56678 126.376 4.13734 135.727 3.97494C147.896 3.81114 159.942 5.36377 171.62 8.58944C175.213 9.81447 178.725 11.4483 182.074 13.449C189.628 18.0229 195.956 24.106 201.061 31.62C206.165 39.1745 209.636 47.7497 211.432 57.1005C212.086 60.5712 212.534 64.1245 212.698 67.6358C213.024 73.9653 212.493 80.4572 211.187 86.9506C210.371 90.7895 209.513 94.6676 208.656 98.4658L208.657 98.4616Z" fill="black"/>
<path d="M44.5491 136.598C37.4033 132.923 30.8288 128.309 24.908 122.756C19.7223 117.937 15.1078 112.63 11.0253 106.831C5.92079 99.2357 3.02133 91.6811 2.36892 84.1279C14.1698 81.2691 25.7662 79.9223 37.1597 80.0035C48.5517 80.0847 63.0477 82.2085 80.5663 86.2924C98.0848 90.3763 111.927 94.7038 122.053 99.2777C132.22 103.852 142.144 109.487 151.821 116.224C161.498 122.961 166.439 129.454 166.643 135.741C166.847 142.029 165.418 146.889 162.314 150.359C160.395 152.524 157.537 154.646 153.739 156.851C136.874 160.362 116.621 159.382 93.0195 153.871L91.3045 153.38C77.8292 150.685 64.9671 146.357 52.6356 140.478C49.9 139.172 47.2455 137.864 44.5505 136.598H44.5491Z" fill="#E6FBFF"/>
<path d="M132.381 160.937C140.14 160.937 147.448 160.242 154.146 158.813C168.927 155.709 181.341 149.136 191.059 139.212C200.736 129.372 208.005 115.977 212.619 99.4809C212.619 99.4403 212.619 99.3997 212.66 99.3997C213.517 95.5608 214.375 91.6407 215.191 87.7626C216.58 80.943 217.111 74.1249 216.783 67.4271C216.619 63.7115 216.171 59.9958 215.436 56.3207C213.557 46.4799 209.842 37.3741 204.411 29.3701C199.021 21.3255 192.243 14.8336 184.28 10.0553C180.686 7.89083 176.889 6.13519 173.01 4.82896C172.969 4.82896 172.929 4.78836 172.888 4.78836C160.842 1.44089 148.347 -0.15235 135.77 0.0114535C126.011 0.133256 116.415 1.64529 107.269 4.46215C103.962 5.48277 100.694 6.6672 97.4683 8.01403C90.4444 10.9947 83.748 14.7104 77.5417 19.0393C74.2348 21.3255 71.0077 23.8582 67.9459 26.5532C65.7002 28.2683 63.8214 29.5745 62.4339 30.3921C56.4726 33.8628 50.5099 36.9667 44.5891 39.5791C42.4653 40.5186 40.3835 41.3754 38.5046 42.1104C30.3382 44.1516 22.7837 47.6223 15.9641 52.36C13.9229 53.7894 12.044 55.4219 10.329 57.2195L10.2884 57.2601C8.77775 58.852 7.38892 60.4858 6.24649 62.1602C6.20589 62.2414 6.1247 62.324 6.0827 62.4052C3.34704 66.2847 1.50879 70.4092 0.651975 74.6555C0.651975 74.6961 0.651969 74.7367 0.611369 74.7773C0.202559 76.7374 -0.000444327 78.738 -0.000444327 80.7792C-0.000444327 82.0043 0.0401627 83.2293 0.163365 84.4137C0.857781 92.2539 3.91964 100.216 9.18796 108.056C9.18796 108.056 9.18797 108.097 9.22857 108.097C13.3531 114.017 18.13 119.448 23.3983 124.348C29.4422 129.983 36.2198 134.76 43.5293 138.518C43.5699 138.518 43.5699 138.559 43.6105 138.559C46.3056 139.824 49.0006 141.09 51.6145 142.397C64.0272 148.359 77.1763 152.728 90.6922 155.464L92.3666 155.913H92.4072C104.289 158.69 115.478 160.323 125.645 160.854C128.014 160.895 130.219 160.935 132.382 160.935L132.381 160.937ZM208.657 98.4616C204.207 114.304 197.306 127.045 188.118 136.395C183.544 141.051 178.277 144.971 172.52 147.992C166.721 151.054 160.27 153.341 153.247 154.811C145.04 156.527 135.852 157.138 125.93 156.648C116.008 156.158 105.063 154.524 93.4264 151.829L91.7114 151.38C91.6708 151.38 91.6302 151.38 91.5896 151.339C78.3593 148.685 65.4972 144.357 53.4107 138.559C50.7563 137.252 48.0612 135.987 45.3662 134.72C38.4248 131.126 31.9735 126.594 26.1745 121.204C21.1106 116.508 16.5381 111.282 12.5774 105.606C7.67734 98.337 4.90108 91.0695 4.24726 83.9237C4.16606 82.8219 4.08345 81.7187 4.08345 80.6574C4.08345 78.9018 4.24726 77.1462 4.61407 75.4311V75.3499C5.38969 71.6748 6.98292 68.081 9.39097 64.6509C9.43158 64.6103 9.43157 64.5697 9.47217 64.5291C9.47217 64.4885 9.51278 64.4885 9.51278 64.4479C10.574 62.9372 11.799 61.4672 13.1879 59.9972L13.2284 59.9566C14.7391 58.3647 16.4541 56.8947 18.2504 55.5871C24.6611 51.0958 31.8069 47.8281 39.5252 45.9101C39.6064 45.8695 39.689 45.8695 39.7702 45.8289C41.7709 45.0532 43.9353 44.1544 46.181 43.1744C52.1829 40.4793 58.3487 37.3349 64.3926 33.783C65.9438 32.8436 67.9039 31.4968 70.3539 29.6585C70.3945 29.6179 70.4351 29.6179 70.4757 29.5773C73.4564 26.9635 76.5603 24.5134 79.7859 22.3083C85.7473 18.1433 92.1986 14.5914 98.937 11.6919C102.041 10.3857 105.184 9.24186 108.369 8.26184C117.149 5.56678 126.376 4.13734 135.727 3.97494C147.896 3.81114 159.942 5.36377 171.62 8.58944C175.213 9.81447 178.725 11.4483 182.074 13.449C189.628 18.0229 195.956 24.106 201.061 31.62C206.165 39.1745 209.636 47.7497 211.432 57.1005C212.086 60.5712 212.534 64.1245 212.698 67.6358C213.024 73.9653 212.493 80.4572 211.187 86.9506C210.371 90.7895 209.513 94.6676 208.656 98.4658L208.657 98.4616Z" fill="black"/>
<path d="M161.858 59.7663C162.463 56.6807 163.695 54.218 165.634 52.3924C167.621 50.5345 169.676 49.8149 171.84 50.2391C174.005 50.6633 175.675 52.1152 176.774 54.5764C177.96 57.0139 178.21 59.7677 177.606 62.8534C177.001 65.9391 175.744 68.3135 173.757 70.1714C171.77 72.0292 169.715 72.7488 167.511 72.3162C165.308 71.8836 163.717 70.4486 162.618 67.9859C161.512 65.5639 161.262 62.81 161.858 59.7649M167.74 54.1774C167.154 54.1872 166.636 54.5022 166.19 55.0804C165.743 55.6586 165.522 56.3643 165.453 57.1413C165.424 57.9267 165.595 58.5427 165.99 59.0775C166.391 59.5731 166.89 59.7943 167.474 59.7845C168.057 59.7747 168.577 59.4597 168.984 58.8745C169.431 58.2963 169.652 57.5907 169.714 56.8543C169.743 56.0689 169.581 55.4136 169.177 54.918C168.791 54.3426 168.294 54.12 167.741 54.1788L167.74 54.1774Z" fill="black"/>
<path d="M166.149 55.0733C166.596 54.495 167.115 54.1814 167.699 54.1702C168.252 54.1114 168.741 54.3746 169.142 54.8688C169.537 55.4037 169.747 56.0281 169.679 56.8051C169.61 57.5821 169.396 58.2471 168.949 58.8253C168.503 59.4035 167.983 59.7172 167.439 59.7354C166.853 59.7452 166.356 59.5225 165.954 59.0283C165.56 58.4935 165.39 57.8775 165.418 57.0921C165.48 56.3557 165.742 55.6571 166.148 55.0718L166.149 55.0733Z" fill="white"/>
<path d="M168.753 74.4751C171.003 74.4583 173.179 73.5539 175.174 71.6569C177.464 69.526 178.934 66.6938 179.611 63.2483C180.287 59.8028 179.97 56.5365 178.687 53.7463C177.298 50.6438 175.121 48.8028 172.276 48.2442C169.431 47.6856 166.719 48.569 164.262 50.9168C162.012 53.0561 160.541 55.8883 159.857 59.3744C159.174 62.8605 159.474 65.998 160.79 68.8358C162.179 71.9383 164.317 73.7709 167.161 74.3295C167.682 74.4317 168.251 74.5017 168.756 74.4751H168.753ZM170.632 52.1657C170.88 52.1727 171.168 52.1881 171.45 52.2427L171.49 52.2511C173.494 52.6445 174.429 54.2419 174.954 55.3857C175.923 57.448 176.099 59.73 175.573 62.4139C175.046 65.0977 174.037 67.0648 172.353 68.6482C171.387 69.54 169.918 70.6671 167.915 70.2751C165.911 69.883 165.017 68.2926 164.5 67.1082L164.508 67.0676C163.54 65.0053 163.363 62.7233 163.874 60.1192C164.401 57.434 165.425 55.3885 167.062 53.8373C167.875 53.0813 169.057 52.1475 170.635 52.1657H170.632Z" fill="black"/>
<path d="M166.031 83.6762C169.117 84.281 171.643 85.1924 173.642 86.458C175.641 87.7237 176.526 88.9375 176.298 90.0995C176.07 91.2615 174.791 92.0512 172.463 92.4684C170.135 92.8856 167.451 92.775 164.365 92.1702C161.28 91.5653 158.795 90.6609 156.795 89.3953C154.789 88.1703 153.864 86.948 154.099 85.7454C154.334 84.5428 155.605 83.7938 157.974 83.385C160.263 82.9594 162.946 83.07 166.031 83.6748V83.6762Z" fill="#CF80A6"/>
<path d="M105.063 48.6296C105.668 45.5439 106.9 43.0813 108.839 41.2557C110.826 39.3978 112.881 38.6782 115.045 39.1024C117.21 39.5266 118.88 40.9784 119.979 43.4397C121.165 45.8772 121.415 48.631 120.811 51.7167C120.206 54.8024 118.949 57.1768 116.962 59.0346C114.975 60.8925 112.92 61.6121 110.716 61.1795C108.513 60.7469 106.882 59.3035 105.783 56.8422C104.717 54.4271 104.467 51.6733 105.063 48.6282M110.904 43.0323C110.319 43.0421 109.801 43.3571 109.354 43.9353C108.908 44.5135 108.686 45.2191 108.618 45.9962C108.588 46.7816 108.759 47.3976 109.154 47.9324C109.556 48.428 110.054 48.6492 110.638 48.6394C111.222 48.6296 111.741 48.3146 112.149 47.7294C112.595 47.1512 112.816 46.4456 112.878 45.7092C112.907 44.9237 112.745 44.2685 112.342 43.7729C111.996 43.2059 111.498 42.9833 110.905 43.0337L110.904 43.0323Z" fill="black"/>
<path d="M109.355 43.9365C109.802 43.3583 110.321 43.0447 110.905 43.0335C111.458 42.9747 111.947 43.2379 112.348 43.7321C112.743 44.2669 112.953 44.8914 112.885 45.6684C112.816 46.4454 112.602 47.1104 112.155 47.6886C111.709 48.2668 111.189 48.5804 110.645 48.5986C110.059 48.6084 109.562 48.3858 109.161 47.8916C108.766 47.3568 108.596 46.7408 108.624 45.9554C108.693 45.1784 108.948 44.5203 109.354 43.9351L109.355 43.9365Z" fill="white"/>
<path d="M111.957 63.3384C114.207 63.3216 116.383 62.4172 118.378 60.5202C120.668 58.3893 122.138 55.5571 122.815 52.1116C123.491 48.6661 123.174 45.3998 121.891 42.6096C120.502 39.5071 118.325 37.6661 115.48 37.1074C112.635 36.5488 109.923 37.4323 107.466 39.7801C105.216 41.9194 103.745 44.7516 103.062 48.2377C102.378 51.7238 102.678 54.8612 103.994 57.6991C105.383 60.8016 107.521 62.6342 110.366 63.1928C110.886 63.295 111.455 63.365 111.96 63.3384H111.957ZM113.836 41.0289C114.084 41.0359 114.372 41.0513 114.654 41.1059L114.694 41.1143C116.698 41.5077 117.633 43.1052 118.158 44.249C119.127 46.3112 119.303 48.5933 118.777 51.2772C118.251 53.961 117.241 55.9281 115.557 57.5115C114.591 58.4033 113.122 59.5303 111.119 59.1383C109.115 58.7463 108.221 57.1559 107.704 55.9715L107.713 55.9309C106.744 53.8686 106.567 51.5866 107.078 48.9825C107.605 46.2972 108.63 44.2518 110.266 42.7006C111.08 41.9446 112.261 41.0107 113.839 41.0289H113.836Z" fill="black"/>
<path d="M109.196 72.5303C112.281 73.1351 114.807 74.0465 116.806 75.3122C118.805 76.5778 119.69 77.7916 119.462 78.9536C119.234 80.1157 117.956 80.9053 115.627 81.3225C113.299 81.7397 110.615 81.6291 107.53 81.0243C104.444 80.4195 101.918 79.5081 99.919 78.2424C97.9127 77.0174 96.9873 75.7952 97.2225 74.5925C97.4577 73.3899 98.7289 72.6409 101.098 72.2321C103.467 71.8233 106.149 71.9325 109.196 72.5303Z" fill="#CF80A6"/>
<path d="M63.5452 109.536C68.1653 109.522 72.5068 108.163 76.5305 105.452C80.41 102.839 83.2759 99.4464 84.9853 95.3695C85.4361 94.3348 84.9657 93.1196 83.9227 92.708C82.8881 92.2572 81.6728 92.7276 81.2612 93.7706C79.8206 97.1083 77.4867 99.8986 74.2793 102.06C69.7292 105.125 64.9215 106.102 59.5509 105.055C54.1804 104.008 50.0909 101.297 47.0263 96.7471C44.824 93.5312 43.711 90.0689 43.6284 86.4331C43.599 85.3046 42.689 84.4198 41.6011 84.4576L41.5605 84.4492C40.4321 84.4786 39.5473 85.3886 39.5767 86.5171C39.6705 90.9454 41.0523 95.1665 43.6662 99.0459C47.3119 104.457 52.3982 107.82 58.7697 109.062C60.3728 109.374 61.9674 109.518 63.5452 109.535V109.536Z" fill="black"/>
</svg>
