<svg width="369" height="345" viewBox="0 0 369 345" fill="none" xmlns="http://www.w3.org/2000/svg">
<path d="M134.437 245.316C134.14 245.283 133.288 245.426 131.917 245.697C129.93 246.031 128.261 246.27 126.957 246.447C121.49 247.156 116.089 247.27 110.748 246.749C103.373 246.027 96.0438 244.09 88.7065 240.86C86.319 239.801 84.0471 238.682 81.9767 237.528L81.8355 237.428C80.2658 236.523 79.2386 235.862 78.7442 235.404C79.2318 235.822 80.259 236.483 81.8355 237.428L81.9767 237.528C82.0025 236.941 82.0892 235.967 82.2036 234.656C82.4163 232.202 83.2858 229.93 84.8118 227.84C85.9247 226.278 87.4986 224.721 89.5176 223.09C90.6183 222.196 92.1718 221.019 94.1775 219.556C95.5613 218.365 96.2972 217.282 96.391 216.35C96.5649 214.653 95.5833 213.275 93.4726 212.128C91.7281 211.171 89.5917 210.612 87.1375 210.399C84.3388 210.118 81.5282 210.507 78.6554 211.531C75.8983 212.494 73.3922 213.956 71.0901 215.885C68.8284 217.807 67.0188 219.945 65.6362 222.386C64.2336 224.956 63.459 227.546 63.3875 230.101L63.3347 230.527C64.7537 230.789 66.2684 231.118 67.7967 231.529C66.228 231.125 64.7537 230.789 63.3347 230.527C48.9074 228.029 39.9318 233.663 36.2167 247.544C35.5186 251.331 35.4271 254.013 36.0098 255.5C36.6666 257.183 37.5262 258.08 38.629 258.187C39.3055 258.241 40.4462 257.84 42.0205 257.035C43.0199 256.534 44.7363 255.578 47.2156 254.203C52.5186 251.52 57.4577 250.4 61.987 250.806C63.8523 250.993 65.5772 251.579 67.2077 252.598C68.4652 253.388 70.0222 254.71 71.8291 256.534C72.8841 257.608 74.6977 259.472 77.2767 262.165C79.8066 264.575 82.3915 266.81 85.0982 268.774C89.2862 271.864 93.0331 274.32 96.3003 276.149C101.075 278.767 105.91 280.748 110.832 282.006C114.97 283.062 120.278 284.382 126.788 285.915C127.91 286.144 128.871 286.398 129.662 286.642C130.195 286.093 130.695 285.593 131.188 285.052C133.726 282.292 135.764 279.531 137.242 276.657C139.299 272.769 140.565 268.387 141.032 263.473C141.446 258.983 140.772 254.72 139.023 250.761C138.338 249.166 137.532 247.842 136.612 246.83C135.875 245.912 135.117 245.372 134.44 245.32L134.437 245.316Z" fill="#A9C0F8"/>
<path d="M130.013 288.749C129.689 288.803 129.392 288.77 129.087 288.695C128.343 288.487 127.424 288.224 126.39 288.023L126.349 288.03C119.879 286.49 114.525 285.138 110.386 284.081C105.329 282.761 100.278 280.733 95.3673 278.056C92.0127 276.2 88.1702 273.678 83.935 270.552C81.1744 268.514 78.455 266.219 75.9183 263.769L75.8712 263.735C73.3072 261.122 71.4868 259.218 70.4707 258.138C68.7649 256.423 67.352 255.201 66.236 254.513C64.883 253.657 63.4702 253.185 61.9424 253.024C57.8326 252.63 53.2577 253.69 48.2998 256.188C45.8608 257.557 44.0985 258.477 43.1047 259.02C41.1115 260.064 39.7275 260.505 38.5912 260.445L38.5105 260.459C37.1183 260.109 35.2717 259.293 34.132 256.232C33.3926 254.314 33.4095 251.433 34.2291 247.128C34.2224 247.088 34.2559 247.04 34.2492 247C36.2147 239.583 39.7361 234.24 44.6806 231.159C49.1323 228.369 54.7615 227.383 61.4402 228.178C61.769 225.913 62.5497 223.615 63.8051 221.404C65.283 218.78 67.2934 216.357 69.7043 214.327C72.1888 212.242 74.9246 210.658 77.9115 209.574C81.0597 208.462 84.2024 208.059 87.2915 208.332C90.0027 208.586 92.4095 209.266 94.4179 210.305C98.0428 212.281 98.5872 214.775 98.4268 216.553C98.2591 218.041 97.3423 219.528 95.5249 221.126C95.4914 221.173 95.4511 221.179 95.3758 221.234C93.4505 222.682 91.8905 223.82 90.7898 224.713C88.9132 226.196 87.4476 227.65 86.4757 229.064C85.1938 230.863 84.473 232.776 84.238 234.859C84.1706 235.454 84.1245 235.921 84.1188 236.38C85.8162 237.305 87.629 238.167 89.5227 239.017C96.5894 242.125 103.79 244.044 110.908 244.724C116.079 245.231 121.392 245.09 126.656 244.415C127.96 244.238 129.589 244.006 131.536 243.679C133.712 243.231 134.252 243.223 134.59 243.25L134.63 243.243C135.86 243.369 137.071 244.125 138.262 245.509C139.29 246.67 140.212 248.184 140.971 249.974C142.856 254.244 143.59 258.873 143.15 263.699C142.643 268.87 141.31 273.597 139.118 277.675C137.534 280.651 135.407 283.634 132.721 286.503C132.188 287.051 131.654 287.6 131.122 288.147C130.845 288.485 130.46 288.675 130.014 288.75L130.013 288.749ZM127.297 283.993C127.945 284.134 128.514 284.289 129.075 284.404C129.285 284.16 129.541 283.951 129.75 283.707C132.146 281.095 134.118 278.43 135.507 275.778C137.402 272.167 138.614 267.961 139.047 263.345C139.441 259.235 138.821 255.295 137.208 251.647C136.599 250.248 135.908 249.113 135.136 248.242C135.136 248.242 135.129 248.202 135.089 248.209C134.623 247.662 134.332 247.418 134.196 247.358C133.952 247.399 133.419 247.447 132.249 247.685L132.209 247.691C130.222 248.025 128.513 248.27 127.127 248.462C121.537 249.191 115.928 249.299 110.458 248.758C102.914 248.023 95.2805 246.011 87.8087 242.721C85.3741 241.628 83.0551 240.475 80.8973 239.295L80.7561 239.195C80.709 239.161 80.6687 239.168 80.6619 239.127C78.4433 237.832 77.6786 237.253 77.3269 236.894C76.4875 236.117 76.4393 234.833 77.2146 233.994C77.9914 233.155 79.2755 233.107 80.1146 233.882C80.1214 233.922 80.1617 233.916 80.2088 233.949C80.5235 231.353 81.5216 228.852 83.1063 226.626C84.321 224.921 86.0359 223.216 88.204 221.477C89.3047 220.583 90.8985 219.399 92.8236 217.95C94.2006 216.718 94.2748 216.164 94.2681 216.124C94.3011 215.826 94.368 214.982 92.3932 213.895C90.8857 213.106 89.0467 212.582 86.8423 212.367C84.3811 212.113 81.8137 212.461 79.2125 213.356C76.7335 214.231 74.3752 215.586 72.2959 217.351C70.2707 219.192 68.6034 221.181 67.3883 223.387C66.3635 225.227 65.7569 227.079 65.4755 228.878C66.3806 229.059 67.2942 229.281 68.2546 229.536C69.343 229.812 69.9934 230.954 69.7173 232.042C69.4411 233.131 68.2996 233.781 67.2112 233.505C65.7231 233.087 64.2973 232.785 62.9253 232.556C56.3062 231.374 50.9198 232.07 46.8887 234.623C42.856 237.175 39.942 241.666 38.2528 247.996C37.4066 252.391 37.6992 254.134 37.9291 254.763C38.2416 255.628 38.6068 256.067 38.8233 256.114C38.986 256.086 39.6271 255.937 41.1275 255.185C42.1269 254.684 43.8433 253.729 46.2876 252.401C46.3145 252.396 46.3391 252.379 46.3615 252.347C52.0082 249.481 57.3547 248.292 62.2687 248.76C64.4729 248.973 66.5142 249.715 68.3816 250.903C69.7817 251.793 71.3914 253.19 73.3409 255.115C73.3409 255.115 73.3477 255.155 73.388 255.148C74.4027 256.228 76.2164 258.092 78.7885 260.745C81.2243 263.088 83.7954 265.241 86.3731 267.185C90.4654 270.209 94.1653 272.631 97.3851 274.425C101.978 276.948 106.718 278.862 111.464 280.067C115.52 281.137 120.869 282.449 127.297 283.996L127.297 283.993Z" fill="black"/>
<path d="M186.996 293.05C186.913 296.275 186.801 299.587 186.582 303C186.476 304.101 186.537 305.217 186.728 306.352C187.326 309.92 189.337 312.709 192.712 314.685C196.1 316.742 199.92 317.395 204.137 316.687L214.558 314.938C218.632 313.38 221.163 310.578 222.166 306.616C223.169 302.654 221.579 296.417 217.407 287.945C217.52 280.422 217.161 273.312 216.376 266.647C216.082 264.404 215.884 262.978 215.782 262.37L185.803 265.318C187.04 272.197 187.47 281.463 186.996 293.049L186.996 293.05Z" fill="#A9C0F8"/>
<path d="M214.899 316.967L204.478 318.716C199.775 319.505 195.475 318.726 191.674 316.445C187.751 314.185 185.409 310.91 184.701 306.692C184.484 305.395 184.435 304.111 184.555 302.84C184.747 299.515 184.913 296.277 184.963 293.099C184.956 293.059 184.943 292.978 184.976 292.93C185.402 281.561 185.027 272.368 183.775 265.659C183.584 264.523 184.327 263.482 185.415 263.258L185.455 263.251C186.549 263.068 187.632 263.804 187.815 264.898C189.073 271.899 189.491 281.335 189.064 292.954L189.077 293.035C189.001 296.299 188.855 299.659 188.677 303.066L188.69 303.147C188.597 304.08 188.632 305.032 188.789 305.965C189.286 308.925 190.917 311.194 193.778 312.84L193.825 312.874C196.835 314.661 200.1 315.24 203.831 314.614L214.049 312.899C217.406 311.543 219.412 309.33 220.239 306.065C221.342 301.71 218.306 294.3 215.589 288.794C215.454 288.483 215.359 288.165 215.386 287.827C215.519 280.427 215.167 273.356 214.355 266.78C214.068 264.577 213.87 263.151 213.768 262.543C213.618 261.4 214.367 260.4 215.502 260.209C216.644 260.059 217.685 260.802 217.835 261.943C217.944 262.593 218.135 263.977 218.394 266.269C219.213 272.886 219.573 279.995 219.479 287.391C223.747 296.18 225.322 302.585 224.193 307.027C223.015 311.685 220.024 314.98 215.322 316.77C215.18 316.918 215.018 316.945 214.896 316.966L214.899 316.967Z" fill="black"/>
<path d="M221.918 199.191C225.44 205.271 228.172 211.608 230.166 218.277C230.817 220.419 231.428 222.568 232.032 224.676C232.997 229.434 232.482 234.064 230.56 238.513C228.463 243.409 224.749 245.867 219.464 245.92C215.056 245.993 211.567 244.077 208.954 240.18C207.301 237.789 205.988 235.175 205.025 232.418C203.586 226.823 201.572 221.282 199.024 215.791C196.477 210.298 191.927 204.559 185.337 198.577L205.132 183.874C212.355 187.164 217.923 192.274 221.919 199.191L221.918 199.191Z" fill="#A9C0F8"/>
<path d="M222.149 247.763C221.298 247.905 220.392 247.974 219.479 248.002C214.363 248.069 210.237 245.842 207.238 241.384C205.518 238.839 204.095 236.076 203.058 233.122C203.051 233.082 203.038 233.001 202.99 232.966C201.578 227.533 199.612 222.027 197.126 216.65C194.707 211.428 190.266 205.835 183.919 200.064C183.08 199.287 183.031 198.003 183.767 197.171C184.543 196.331 185.827 196.283 186.66 197.018C193.446 203.175 198.205 209.171 200.875 214.894C203.435 220.468 205.477 226.17 206.964 231.798C207.893 234.352 209.098 236.817 210.636 239.019C212.857 242.315 215.751 243.914 219.448 243.835C223.984 243.782 226.908 241.832 228.708 237.654C230.448 233.61 230.909 229.406 230.107 225.121C229.509 223.052 228.899 220.904 228.255 218.803C226.295 212.337 223.576 206.081 220.163 200.15C216.403 193.653 211.085 188.792 204.268 185.684C203.234 185.233 202.772 183.975 203.272 182.975C203.723 181.94 204.981 181.479 205.981 181.979C213.569 185.458 219.53 190.92 223.702 198.14C227.284 204.334 230.09 210.867 232.146 217.65C232.797 219.792 233.415 221.981 234.019 224.089L234.046 224.252C235.08 229.415 234.511 234.471 232.407 239.327C231.206 242.113 229.486 244.278 227.31 245.727C225.817 246.769 224.095 247.434 222.149 247.761L222.149 247.763Z" fill="black"/>
<path d="M177.841 165.996C177.266 165.801 176.658 165.653 176.042 165.464C169.47 163.566 162.635 162.837 155.627 163.305L155.586 163.312C155.506 163.325 155.417 163.299 155.296 163.319C155.012 163.366 154.682 163.38 154.397 163.428L149.41 164.265C148.964 164.34 148.566 164.448 148.12 164.523L147.633 164.605C142.329 166.037 137.384 168.118 132.75 170.813C131.386 171.626 130.069 172.473 128.765 173.401C112.32 184.957 103.57 200.642 102.505 220.373C102.719 230.343 103.454 239.934 104.687 249.274C106.029 258.262 109.044 265.552 113.77 271.095C123.327 282.331 139.838 286.564 163.248 283.719C164.349 283.575 165.451 283.432 166.594 283.281L167.243 283.172L169.439 282.845L173.292 282.199L175.474 281.791L176.124 281.682C177.09 281.478 178.063 281.315 178.989 281.118L187.152 279.081L194.733 276.558C195.084 276.416 195.443 276.314 195.753 276.178C198.448 275.101 200.961 273.928 203.251 272.668C212.574 267.601 218.805 261.011 221.992 252.93C224.648 246.148 225.159 238.267 223.493 229.332C221.618 220.142 219.173 210.796 216.121 201.303C209.01 183.527 196.194 171.755 177.844 165.997L177.841 165.996Z" fill="#A9C0F8"/>
<path d="M173.677 284.259L169.784 284.913L167.588 285.24L166.898 285.355C165.756 285.506 164.614 285.656 163.512 285.799C151.576 287.219 141.263 286.865 132.81 284.699C124.183 282.478 117.236 278.349 112.201 272.44C107.3 266.592 104.055 258.925 102.691 249.564L102.684 249.524C101.45 240.184 100.682 230.39 100.469 220.422C100.462 220.382 100.455 220.341 100.482 220.252C101.031 210.113 103.568 200.891 108.089 192.795C112.614 184.74 119.176 177.635 127.599 171.678C128.943 170.743 130.334 169.844 131.739 169.023C136.481 166.226 141.622 164.071 147.088 162.612L147.25 162.585C147.371 162.564 147.453 162.551 147.568 162.49L147.689 162.47L148.898 162.225C149.061 162.198 149.256 162.124 149.459 162.09L152.784 161.532C152.905 161.511 153.068 161.484 153.197 161.504L154.177 161.381L154.663 161.299C154.866 161.265 155.076 161.271 155.278 161.238C155.358 161.224 155.447 161.251 155.568 161.23C162.786 160.769 169.871 161.498 176.666 163.484C177.281 163.672 177.897 163.86 178.512 164.049C187.932 167.012 196.041 171.613 202.644 177.674C209.248 183.737 214.462 191.45 218.156 200.542C218.163 200.583 218.21 200.616 218.224 200.698C221.276 210.192 223.787 219.691 225.63 228.929L225.637 228.969C227.365 238.267 226.84 246.569 224.036 253.71C220.721 262.271 214.098 269.26 204.351 274.524C201.98 275.797 199.352 277.031 196.616 278.115C196.265 278.257 195.914 278.4 195.596 278.495L195.516 278.508L187.935 281.031L187.772 281.059L179.65 283.09L179.569 283.103C178.603 283.307 177.629 283.47 176.663 283.674L175.973 283.789L173.676 284.258C173.703 284.253 173.703 284.253 173.676 284.258L173.677 284.259ZM169.144 280.851L172.996 280.204L175.179 279.796L175.828 279.687C176.754 279.49 177.727 279.327 178.653 279.13L186.654 277.12L194.154 274.61C194.464 274.475 194.783 274.38 195.093 274.244C197.674 273.228 200.147 272.062 202.362 270.856C211.232 266.074 217.22 259.774 220.192 252.146C222.699 245.722 223.143 238.184 221.586 229.649C219.738 220.621 217.293 211.276 214.31 201.938C210.839 193.433 205.964 186.247 199.848 180.602C193.69 174.965 186.089 170.655 177.286 167.88C176.711 167.684 176.143 167.53 175.527 167.341C169.219 165.524 162.594 164.801 155.876 165.262L155.713 165.29C155.673 165.296 155.592 165.31 155.544 165.277C155.26 165.324 155.01 165.325 154.727 165.372L153.673 165.549C153.592 165.563 153.51 165.576 153.429 165.59L149.82 166.196L148.57 166.447C148.49 166.46 148.367 166.481 148.253 166.542L148.132 166.562C143.024 167.92 138.234 169.933 133.796 172.553C132.465 173.318 131.19 174.158 129.919 175.037C121.978 180.623 115.841 187.28 111.638 194.781C107.435 202.282 105.046 210.896 104.557 220.399C104.784 230.199 105.478 239.797 106.726 248.967C107.999 257.55 110.92 264.522 115.347 269.783C119.813 275.036 126.064 278.74 133.818 280.732C141.789 282.77 151.604 283.124 163.006 281.753C164.067 281.617 165.169 281.473 166.27 281.33L169.149 280.847L169.144 280.851Z" fill="black"/>
<path d="M154.883 163.346L154.478 163.414C154.768 163.407 155.092 163.352 155.377 163.305C155.498 163.284 155.587 163.311 155.708 163.291L155.701 163.25C155.41 163.258 155.167 163.298 154.883 163.346Z" fill="#A87D4F"/>
<path d="M177.84 165.998C177.266 165.803 176.658 165.654 176.042 165.466C169.469 163.568 162.635 162.839 155.626 163.307L155.586 163.313C155.505 163.327 155.417 163.3 155.296 163.321C155.012 163.368 154.681 163.382 154.396 163.43L149.41 164.267C148.963 164.342 148.566 164.45 148.119 164.525L147.633 164.607C142.329 166.039 137.383 168.119 132.75 170.815C159.508 198.593 169.669 236.284 163.254 283.759C164.355 283.616 165.457 283.473 166.6 283.322L167.249 283.213L169.446 282.886L173.298 282.24L175.481 281.832L176.13 281.723C177.096 281.519 178.069 281.356 178.996 281.159L187.158 279.121L194.739 276.598C195.09 276.457 195.449 276.355 195.759 276.218C198.454 275.142 200.968 273.969 203.257 272.709C217.211 240.1 208.702 204.55 177.843 165.997L177.84 165.998Z" fill="#D4D2EC"/>
<path d="M173.677 284.259L169.784 284.913L167.588 285.24L166.898 285.355C165.756 285.506 164.614 285.656 163.512 285.799C151.576 287.219 141.263 286.865 132.81 284.699C124.183 282.478 117.236 278.349 112.201 272.44C107.3 266.592 104.055 258.925 102.691 249.564L102.684 249.524C101.45 240.184 100.682 230.39 100.469 220.422C100.462 220.382 100.455 220.341 100.482 220.252C101.031 210.113 103.568 200.891 108.089 192.795C112.614 184.74 119.176 177.635 127.599 171.678C128.943 170.743 130.334 169.844 131.739 169.023C136.481 166.226 141.622 164.071 147.088 162.612L147.25 162.585C147.371 162.564 147.453 162.551 147.568 162.49L147.689 162.47L148.898 162.225C149.061 162.198 149.256 162.124 149.459 162.09L152.784 161.532C152.905 161.511 153.068 161.484 153.197 161.504L154.177 161.381L154.663 161.299C154.866 161.265 155.076 161.271 155.278 161.238C155.358 161.224 155.447 161.251 155.568 161.23C162.786 160.769 169.871 161.498 176.666 163.484C177.281 163.672 177.897 163.86 178.512 164.049C187.932 167.012 196.041 171.613 202.644 177.674C209.248 183.737 214.462 191.45 218.156 200.542C218.163 200.583 218.21 200.616 218.224 200.698C221.276 210.192 223.787 219.691 225.63 228.929L225.637 228.969C227.365 238.267 226.84 246.569 224.036 253.71C220.721 262.271 214.098 269.26 204.351 274.524C201.98 275.797 199.352 277.031 196.616 278.115C196.265 278.257 195.914 278.4 195.596 278.495L195.516 278.508L187.935 281.031L187.772 281.059L179.65 283.09L179.569 283.103C178.603 283.307 177.629 283.47 176.663 283.674L175.973 283.789L173.676 284.258C173.703 284.253 173.703 284.253 173.676 284.258L173.677 284.259ZM169.144 280.851L172.996 280.204L175.179 279.796L175.828 279.687C176.754 279.49 177.727 279.327 178.653 279.13L186.654 277.12L194.154 274.61C194.464 274.475 194.783 274.38 195.093 274.244C197.674 273.228 200.147 272.062 202.362 270.856C211.232 266.074 217.22 259.774 220.192 252.146C222.699 245.722 223.143 238.184 221.586 229.649C219.738 220.621 217.293 211.276 214.31 201.938C210.839 193.433 205.964 186.247 199.848 180.602C193.69 174.965 186.089 170.655 177.286 167.88C176.711 167.684 176.143 167.53 175.527 167.341C169.219 165.524 162.594 164.801 155.876 165.262L155.713 165.29C155.673 165.296 155.592 165.31 155.544 165.277C155.26 165.324 155.01 165.325 154.727 165.372L153.673 165.549C153.592 165.563 153.51 165.576 153.429 165.59L149.82 166.196L148.57 166.447C148.49 166.46 148.367 166.481 148.253 166.542L148.132 166.562C143.024 167.92 138.234 169.933 133.796 172.553C132.465 173.318 131.19 174.158 129.919 175.037C121.978 180.623 115.841 187.28 111.638 194.781C107.435 202.282 105.046 210.896 104.557 220.399C104.784 230.199 105.478 239.797 106.726 248.967C107.999 257.55 110.92 264.522 115.347 269.783C119.813 275.036 126.064 278.74 133.818 280.732C141.789 282.77 151.604 283.124 163.006 281.753C164.067 281.617 165.169 281.473 166.27 281.33L169.149 280.847L169.144 280.851Z" fill="black"/>
<path d="M128.49 302.869C128.406 306.093 128.295 309.405 128.076 312.818C127.969 313.919 128.03 315.035 128.221 316.17C128.82 319.739 130.83 322.527 134.205 324.504C137.593 326.561 141.413 327.213 145.63 326.505L156.051 324.756C160.125 323.198 162.656 320.396 163.659 316.434C164.662 312.472 163.072 306.235 158.9 297.763C159.013 290.24 158.654 283.131 157.869 276.466C157.575 274.222 157.377 272.796 157.275 272.189L127.296 275.136C128.533 282.015 128.963 291.281 128.489 302.867L128.49 302.869Z" fill="#A9C0F8"/>
<path d="M156.391 326.785L145.97 328.534C141.267 329.324 136.967 328.545 133.166 326.264C129.244 324.003 126.902 320.728 126.194 316.511C125.976 315.214 125.928 313.929 126.047 312.659C126.246 309.373 126.405 306.095 126.455 302.918C126.448 302.877 126.435 302.797 126.468 302.748C126.894 291.379 126.519 282.187 125.267 275.477C125.077 274.341 125.82 273.3 126.907 273.076C128.043 272.886 129.084 273.629 129.308 274.716C130.566 281.718 130.983 291.153 130.556 302.773L130.569 302.853C130.493 306.118 130.348 309.477 130.169 312.885L130.183 312.965C130.089 313.899 130.124 314.85 130.281 315.783C130.778 318.743 132.409 321.012 135.27 322.659L135.317 322.692C138.327 324.48 141.592 325.058 145.323 324.432L155.541 322.717C158.899 321.362 160.904 319.148 161.731 315.883C162.834 311.529 159.798 304.118 157.082 298.612C156.947 298.302 156.852 297.983 156.878 297.646C157.011 290.245 156.659 283.174 155.847 276.598C155.56 274.395 155.362 272.969 155.26 272.361C155.117 271.261 155.859 270.218 156.954 270.035L156.994 270.028C158.136 269.878 159.177 270.62 159.327 271.762C159.436 272.411 159.627 273.795 159.886 276.088C160.705 282.704 161.065 289.813 160.971 297.209C165.239 305.998 166.815 312.403 165.685 316.845C164.507 321.504 161.517 324.799 156.814 326.588C156.672 326.737 156.511 326.764 156.388 326.784L156.391 326.785Z" fill="black"/>
<path d="M112.499 217.558C111.155 224.454 110.642 231.336 110.935 238.29C111.018 240.528 111.143 242.758 111.26 244.948C111.901 249.761 113.899 253.969 117.168 257.547C120.749 261.49 125.062 262.6 130.075 260.925C134.265 259.555 136.937 256.605 138.135 252.068C138.916 249.269 139.304 246.369 139.314 243.449C138.848 237.691 138.942 231.796 139.558 225.773C140.172 219.75 142.599 212.84 146.875 205.034L123.365 197.6C117.611 203.068 114.017 209.716 112.498 217.558L112.499 217.558Z" fill="#A9C0F8"/>
<path d="M128.139 263.542C126.192 263.869 124.348 263.804 122.562 263.353C120.033 262.694 117.7 261.209 115.656 258.967C112.089 255.105 109.935 250.464 109.185 245.254L109.157 245.091C109.033 242.861 108.909 240.63 108.825 238.393C108.554 231.31 109.107 224.172 110.437 217.195C112.023 209.007 115.875 201.9 121.918 196.174C122.749 195.41 124.046 195.443 124.803 196.232C125.567 197.063 125.535 198.36 124.746 199.117C119.358 204.274 115.877 210.612 114.445 217.98C113.148 224.66 112.63 231.501 112.887 238.253C112.964 240.45 113.081 242.64 113.198 244.829C113.799 249.148 115.614 253.011 118.572 256.225C121.637 259.587 125.038 260.476 129.342 259.045C132.863 257.912 135.076 255.456 136.1 251.615C136.827 248.992 137.169 246.309 137.213 243.591C136.78 237.786 136.847 231.729 137.45 225.626C138.065 219.352 140.598 212.09 145.009 204.096C145.549 203.087 146.826 202.749 147.794 203.295C148.802 203.835 149.141 205.112 148.594 206.08C144.48 213.607 142.109 220.341 141.526 226.068C140.932 231.962 140.871 237.809 141.31 243.405C141.317 243.446 141.33 243.526 141.297 243.575C141.28 246.704 140.837 249.78 140.043 252.749C138.664 257.942 135.491 261.392 130.633 263C129.87 263.17 128.991 263.4 128.14 263.543L128.139 263.542Z" fill="black"/>
<path d="M246.868 75.4019C246.814 75.328 246.713 75.2192 246.658 75.1456C246.441 74.849 246.178 74.5172 245.921 74.2273C244.973 73.0527 243.985 71.8835 242.963 70.7628C239.736 67.1779 236.311 63.9162 232.692 60.9802C232.267 60.6771 231.84 60.3728 231.373 60.0767C213.645 49.586 194.893 41.4355 175.162 35.6589C174.161 35.4095 173.154 35.1212 172.113 34.8786C168.725 34.072 165.372 33.467 161.999 32.9912C155.99 32.2073 149.898 31.9375 143.829 32.2886C140.396 32.4475 136.996 32.8108 133.543 33.3475C124.521 34.7374 115.777 37.0382 107.305 40.2111C104.42 41.1542 101.65 42.2852 98.9606 43.6542C98.6502 43.7892 98.3386 43.9258 98.0753 44.0944C94.5563 45.9772 91.2331 48.2859 88.0937 50.9397C81.2066 56.8483 75.7999 64.1336 71.8698 72.7563C67.9464 81.4193 65.8409 90.7363 65.6216 100.612C65.531 104.296 65.6835 107.938 66.1211 111.534C66.9333 118.11 68.5694 124.631 71.0296 131.096C72.4934 134.853 73.9518 138.569 75.4354 142.196C97.6054 189.337 137.511 201.816 195.196 179.627C196.135 179.261 197.115 178.887 198.094 178.516C199.229 178.075 200.316 177.601 201.445 177.12L201.83 176.931C202.567 176.599 203.303 176.267 204.081 175.929C204.473 175.78 204.831 175.679 205.223 175.528C205.379 175.461 205.5 175.44 205.615 175.38C205.932 175.285 206.244 175.15 206.554 175.013C213.378 172.45 219.721 169.26 225.591 165.482C230.555 162.273 235.147 158.583 239.42 154.489C244.356 149.867 248.574 144.698 252.076 138.983C252.441 138.421 252.757 137.826 253.115 137.225C255.273 133.443 256.945 129.495 258.083 125.343C258.393 124.208 258.662 123.078 258.925 121.909C258.911 121.828 258.857 121.753 258.843 121.672C261.938 108.563 259.787 95.7492 252.359 83.2811C251.6 81.9904 250.753 80.6746 249.834 79.411C248.899 78.067 247.924 76.7298 246.869 75.4061L246.868 75.4019Z" fill="#A9C0F8"/>
<path d="M163.422 190.755C160.706 191.211 158.057 191.573 155.475 191.839C143.054 193.091 131.589 192.096 121.379 188.89C111.128 185.69 101.909 180.192 93.9589 172.564C86.056 164.968 79.2242 155.067 73.5945 143.131C73.5877 143.09 73.5809 143.05 73.5406 143.057C72.05 139.388 70.5445 135.638 69.0877 131.923C66.5653 125.343 64.8547 118.626 64.0559 111.882C63.5993 108.165 63.4249 104.4 63.5423 100.629C63.7947 90.4562 65.9667 80.795 70.0254 71.9421C74.0371 63.0556 79.6852 55.4796 86.7964 49.4076C90.0043 46.6593 93.482 44.2832 97.1166 42.3396C97.1569 42.3328 97.1905 42.2857 97.2308 42.279C97.5412 42.144 97.811 42.0144 98.1228 41.8791C100.845 40.4631 103.73 39.27 106.697 38.3146C115.241 35.0852 124.188 32.7504 133.29 31.3484C136.784 30.8035 140.313 30.4614 143.78 30.2553C149.978 29.9241 156.191 30.1736 162.334 31.0178C165.788 31.4801 169.23 32.1117 172.658 32.9115C173.699 33.1541 174.747 33.4356 175.748 33.685L175.788 33.6782C195.606 39.4816 214.717 47.7805 232.491 58.305C232.998 58.5943 233.471 58.9323 233.952 59.3105L233.999 59.344C237.666 62.3134 241.232 65.6757 244.521 69.3762C245.549 70.5372 246.537 71.7064 247.533 72.9143C247.797 73.2445 248.055 73.5357 248.277 73.8729C248.331 73.9468 248.385 74.022 248.439 74.0959L248.446 74.1362C249.508 75.5002 250.53 76.871 251.464 78.215C252.399 79.559 253.245 80.8765 254.058 82.2408C261.61 94.9398 263.956 108.178 260.909 121.571C260.95 121.814 260.951 122.064 260.911 122.321C260.655 123.532 260.393 124.701 260.05 125.885C258.851 130.171 257.126 134.297 254.866 138.22C254.508 138.822 254.15 139.423 253.794 140.025C250.191 145.882 245.838 151.24 240.794 155.964C236.453 160.154 231.705 163.911 226.667 167.173C220.69 171.052 214.15 174.319 207.252 176.936C206.941 177.071 206.623 177.166 206.313 177.302L205.88 177.457C205.529 177.599 205.17 177.701 204.82 177.844C204.124 178.17 203.388 178.502 202.692 178.826L202.652 178.833L202.226 179.028L202.185 179.035C201.057 179.516 199.881 179.964 198.795 180.438C197.815 180.811 196.883 181.217 195.903 181.59C184.506 185.963 173.6 189.044 163.422 190.753L163.422 190.755ZM77.3424 141.377C82.7292 152.854 89.2834 162.344 96.8275 169.54C104.332 176.744 112.996 181.918 122.625 184.887C132.301 187.89 143.217 188.852 155.065 187.656C167.041 186.479 180.271 183.092 194.494 177.662C195.433 177.296 196.372 176.929 197.351 176.558C198.446 176.124 199.574 175.643 200.668 175.209L201.054 175.02C201.79 174.688 202.526 174.355 203.263 174.025C203.303 174.018 203.377 173.964 203.419 173.957C203.769 173.815 204.168 173.707 204.52 173.563L204.913 173.415C205.23 173.32 205.5 173.192 205.818 173.095C212.446 170.608 218.755 167.464 224.47 163.753C229.279 160.612 233.844 157.009 238.01 153.017L238.05 153.01C242.844 148.536 246.955 143.47 250.362 137.937C250.686 137.382 251.042 136.78 251.367 136.226C253.431 132.627 255.036 128.773 256.126 124.838C256.389 123.919 256.611 123.006 256.792 122.1C256.744 121.817 256.737 121.526 256.818 121.263C258.312 115.009 258.507 108.722 257.486 102.64C256.466 96.5579 254.14 90.403 250.552 84.4188C249.8 83.1698 248.96 81.8929 248.121 80.6158C247.233 79.3053 246.265 78.0084 245.264 76.76C245.21 76.6861 245.109 76.5773 245.054 76.5037C244.796 76.2138 244.574 75.8753 244.316 75.5854C243.369 74.4108 242.388 73.2833 241.413 72.1962C238.28 68.6783 234.911 65.4917 231.392 62.6633C231.054 62.387 230.682 62.1577 230.309 61.9273C212.811 51.5652 194.059 43.4147 174.592 37.7182C173.632 37.4621 172.632 37.2139 171.631 36.9645C168.332 36.1847 165.02 35.5727 161.694 35.1304C155.812 34.3665 149.85 34.1165 143.897 34.4067C140.552 34.5936 137.145 34.9152 133.813 35.4316C124.954 36.7942 116.284 39.0411 108.015 42.18L107.974 42.1868C105.231 43.2305 102.462 44.3627 99.7926 45.6026C99.5225 45.7308 99.2527 45.8604 98.9409 45.9957C95.5764 47.811 92.362 50.0186 89.37 52.5634C82.8132 58.2078 77.542 65.3046 73.7267 73.615C69.917 81.9673 67.8998 91.0608 67.6746 100.645C67.6038 104.201 67.7511 107.804 68.1736 111.318C68.9517 117.691 70.527 124.096 72.9533 130.36C74.4036 134.036 75.8618 137.75 77.3456 141.379L77.3424 141.377Z" fill="black"/>
<path d="M107.306 40.2096C104.421 41.1526 101.65 42.2837 98.9614 43.6526C101.758 42.4328 104.522 41.26 107.306 40.2096Z" fill="#A9C0F8"/>
<path d="M114.382 155.026C114.172 155.019 113.955 154.973 113.74 154.925C113.49 154.925 113.2 154.932 112.956 154.973L112.876 154.987L112.889 155.067L112.119 155.197C112.005 155.257 111.882 155.278 111.768 155.338C111.694 155.392 111.572 155.413 111.498 155.467C111.391 155.567 111.235 155.635 111.126 155.738C110.977 155.846 110.877 155.988 110.728 156.096C110.62 156.197 110.478 156.347 110.376 156.488C110.269 156.589 110.207 156.725 110.1 156.826C110.033 156.92 110.013 157.049 109.985 157.137C109.918 157.231 109.898 157.36 109.829 157.455C109.769 157.589 109.742 157.678 109.721 157.806C109.694 157.893 109.674 158.022 109.688 158.103C109.661 158.191 109.641 158.32 109.655 158.4C109.635 158.528 109.608 158.617 109.629 158.738C109.602 158.825 109.622 158.947 109.596 159.035L109.847 160.535C109.901 160.609 109.922 160.731 109.976 160.805L110.023 161.089C110.077 161.162 110.138 161.278 110.158 161.399C110.212 161.473 110.233 161.595 110.287 161.669C110.327 161.662 110.387 161.776 110.442 161.852C110.536 161.919 110.597 162.034 110.692 162.101C110.793 162.209 110.889 162.277 110.943 162.351C111.077 162.411 111.18 162.52 111.314 162.58C111.449 162.64 111.592 162.742 111.768 162.795C111.909 162.896 112.045 162.958 112.186 163.058C112.403 163.105 112.585 163.2 112.801 163.247C113.018 163.293 113.268 163.293 113.525 163.334L113.538 163.415L115.565 163.074L115.552 162.994C115.666 162.933 115.781 162.872 115.902 162.852C115.976 162.798 116.092 162.737 116.213 162.717C116.32 162.616 116.436 162.555 116.543 162.453C116.644 162.312 116.752 162.209 116.895 162.061C117.002 161.96 117.104 161.817 117.211 161.716L117.447 161.385C117.508 161.25 117.616 161.148 117.676 161.013C117.744 160.919 117.763 160.79 117.832 160.696C117.859 160.608 117.838 160.486 117.865 160.399C117.925 160.264 117.952 160.175 118.013 160.041C118.04 159.953 118.06 159.824 118.046 159.743C118.073 159.656 118.053 159.534 118.079 159.446L118.025 159.122C118.052 159.035 118.031 158.913 118.058 158.825L117.956 158.218C117.902 158.144 117.841 158.028 117.828 157.948L117.78 157.664C117.727 157.59 117.666 157.475 117.645 157.354C117.592 157.28 117.571 157.157 117.517 157.084C117.463 157.01 117.362 156.901 117.267 156.834C117.213 156.76 117.152 156.645 117.138 156.564C117.037 156.457 116.983 156.381 116.881 156.274L116.55 156.038C116.456 155.971 116.395 155.855 116.299 155.789L115.921 155.519C115.786 155.459 115.644 155.357 115.509 155.297C115.333 155.243 115.151 155.148 114.975 155.095C114.819 155.162 114.604 155.115 114.38 155.027M133.316 158.311L133.33 158.392L132.56 158.521C132.445 158.582 132.33 158.643 132.209 158.663C132.06 158.771 131.905 158.838 131.756 158.948C131.567 159.062 131.426 159.212 131.237 159.326C131.129 159.427 131.028 159.57 130.878 159.678C130.771 159.779 130.71 159.915 130.609 160.056C130.542 160.151 130.522 160.28 130.454 160.374C130.385 160.468 130.285 160.611 130.177 160.712C130.15 160.799 130.09 160.935 130.062 161.023C130.042 161.151 130.016 161.239 130.036 161.36C130.009 161.448 129.989 161.577 130.003 161.657C129.976 161.745 129.997 161.867 129.97 161.955C129.95 162.082 129.923 162.171 129.944 162.292L130.141 163.468C130.195 163.542 130.256 163.658 130.269 163.738L130.324 164.062C130.377 164.136 130.398 164.258 130.452 164.332C130.506 164.406 130.566 164.522 130.58 164.602C130.674 164.669 130.735 164.785 130.837 164.892C130.891 164.966 130.992 165.075 131.048 165.148C131.142 165.216 131.203 165.331 131.298 165.398C131.392 165.465 131.535 165.567 131.629 165.634C131.771 165.735 131.947 165.789 132.09 165.89C132.224 165.95 132.367 166.052 132.543 166.105C132.76 166.152 132.983 166.24 133.198 166.287C133.413 166.334 133.665 166.333 133.882 166.381L133.895 166.462L135.518 166.189L135.504 166.109C135.618 166.048 135.774 165.98 135.896 165.96C136.046 165.852 136.2 165.785 136.349 165.675C136.491 165.527 136.639 165.418 136.781 165.27C136.889 165.169 137.031 165.019 137.14 164.918C137.248 164.817 137.349 164.674 137.456 164.573C137.523 164.479 137.543 164.35 137.612 164.256C137.68 164.161 137.698 164.032 137.767 163.938C137.835 163.843 137.854 163.715 137.922 163.62C137.949 163.533 137.969 163.404 137.949 163.283C137.975 163.195 137.955 163.073 137.982 162.986C138.008 162.898 138.028 162.769 138.015 162.688C138.041 162.601 138.061 162.472 138.041 162.351C138.068 162.264 138.087 162.134 138.074 162.054L137.924 161.161C137.87 161.087 137.809 160.972 137.796 160.891C137.742 160.817 137.681 160.702 137.668 160.621C137.607 160.507 137.553 160.432 137.533 160.311C137.479 160.237 137.458 160.115 137.404 160.041C137.31 159.974 137.249 159.858 137.154 159.791C137.058 159.724 136.999 159.609 136.896 159.501C136.802 159.434 136.741 159.319 136.646 159.252C136.55 159.185 136.491 159.069 136.395 159.002C136.261 158.942 136.118 158.84 135.977 158.739C135.801 158.686 135.619 158.591 135.443 158.538C135.226 158.491 135.003 158.403 134.787 158.356C134.572 158.309 134.361 158.303 134.146 158.255C133.896 158.255 133.605 158.263 133.362 158.304C133.402 158.297 133.362 158.304 133.322 158.31M128.31 144.352C128.33 144.224 128.317 144.142 128.337 144.014L128.139 142.838C128.085 142.764 128.065 142.642 128.011 142.568C127.957 142.494 127.896 142.379 127.876 142.258C127.822 142.184 127.761 142.068 127.748 141.988C127.694 141.914 127.633 141.798 127.62 141.717C127.492 141.697 127.437 141.624 127.335 141.515C127.241 141.448 127.18 141.332 127.085 141.265C126.989 141.199 126.93 141.083 126.875 141.009C126.78 140.942 126.72 140.826 126.624 140.76C126.483 140.659 126.347 140.597 126.164 140.504C125.988 140.45 125.806 140.355 125.63 140.302C125.413 140.255 125.19 140.167 124.974 140.12C124.759 140.073 124.59 140.06 124.373 140.012C124.123 140.013 123.84 140.061 123.589 140.061L123.509 140.075L123.522 140.155L122.752 140.285C122.638 140.345 122.522 140.406 122.401 140.426C122.328 140.48 122.212 140.541 122.091 140.561C121.977 140.622 121.868 140.723 121.719 140.832C121.57 140.942 121.429 141.09 121.28 141.198C121.18 141.339 121.071 141.441 120.929 141.59C120.862 141.684 120.76 141.827 120.693 141.921C120.626 142.015 120.606 142.144 120.537 142.239C120.517 142.366 120.45 142.462 120.429 142.59C120.362 142.684 120.342 142.813 120.274 142.907C120.247 142.995 120.267 143.117 120.241 143.205C120.214 143.292 120.194 143.421 120.214 143.542C120.188 143.629 120.168 143.759 120.181 143.839C120.155 143.927 120.175 144.049 120.148 144.136L120.4 145.636C120.454 145.71 120.515 145.826 120.528 145.906L120.576 146.19C120.636 146.304 120.65 146.386 120.711 146.5C120.765 146.574 120.826 146.69 120.839 146.771C120.893 146.844 120.994 146.953 121.09 147.02C121.191 147.127 121.245 147.203 121.347 147.31C121.401 147.384 121.502 147.493 121.557 147.566C121.651 147.633 121.794 147.735 121.929 147.795C122.063 147.856 122.206 147.958 122.389 148.051C122.524 148.112 122.666 148.213 122.843 148.267C123.059 148.313 123.241 148.409 123.457 148.455C123.714 148.495 123.924 148.501 124.181 148.542C124.431 148.542 124.715 148.494 124.965 148.494C125.242 148.406 125.518 148.318 125.844 148.263C125.958 148.203 126.073 148.142 126.194 148.122C126.268 148.068 126.391 148.047 126.465 147.993C126.572 147.892 126.728 147.825 126.843 147.763C126.951 147.662 127.052 147.519 127.195 147.37C127.302 147.27 127.444 147.12 127.553 147.019L127.789 146.688C127.856 146.593 127.958 146.45 128.018 146.316C128.085 146.222 128.105 146.093 128.174 145.998C128.2 145.911 128.18 145.789 128.207 145.701C128.274 145.607 128.294 145.478 128.362 145.384C128.382 145.256 128.409 145.167 128.388 145.046C128.415 144.959 128.435 144.83 128.421 144.749C128.347 144.553 128.327 144.432 128.313 144.35L128.31 144.352Z" fill="#D4D2EC"/>
<path d="M163.422 190.755C160.706 191.211 158.057 191.573 155.475 191.839C143.054 193.091 131.589 192.096 121.379 188.89C111.128 185.69 101.909 180.192 93.9589 172.564C86.056 164.968 79.2242 155.067 73.5945 143.131C73.5877 143.09 73.5809 143.05 73.5406 143.057C72.05 139.388 70.5445 135.638 69.0877 131.923C66.5653 125.343 64.8547 118.626 64.0559 111.882C63.5993 108.165 63.4249 104.4 63.5423 100.629C63.7947 90.4562 65.9667 80.795 70.0254 71.9421C74.0371 63.0556 79.6852 55.4796 86.7964 49.4076C90.0043 46.6593 93.482 44.2832 97.1166 42.3396C97.1569 42.3328 97.1905 42.2857 97.2308 42.279C97.5412 42.144 97.811 42.0144 98.1228 41.8791C100.845 40.4631 103.73 39.27 106.697 38.3146C115.241 35.0852 124.188 32.7504 133.29 31.3484C136.784 30.8035 140.313 30.4614 143.78 30.2553C149.978 29.9241 156.191 30.1736 162.334 31.0178C165.788 31.4801 169.23 32.1117 172.658 32.9115C173.699 33.1541 174.747 33.4356 175.748 33.685L175.788 33.6782C195.606 39.4816 214.717 47.7805 232.491 58.305C232.998 58.5943 233.471 58.9323 233.952 59.3105L233.999 59.344C237.666 62.3134 241.232 65.6757 244.521 69.3762C245.549 70.5372 246.537 71.7064 247.533 72.9143C247.797 73.2445 248.055 73.5357 248.277 73.8729C248.331 73.9468 248.385 74.022 248.439 74.0959L248.446 74.1362C249.508 75.5002 250.53 76.871 251.464 78.215C252.399 79.559 253.245 80.8765 254.058 82.2408C261.61 94.9398 263.956 108.178 260.909 121.571C260.95 121.814 260.951 122.064 260.911 122.321C260.655 123.532 260.393 124.701 260.05 125.885C258.851 130.171 257.126 134.297 254.866 138.22C254.508 138.822 254.15 139.423 253.794 140.025C250.191 145.882 245.838 151.24 240.794 155.964C236.453 160.154 231.705 163.911 226.667 167.173C220.69 171.052 214.15 174.319 207.252 176.936C206.941 177.071 206.623 177.166 206.313 177.302L205.88 177.457C205.529 177.599 205.17 177.701 204.82 177.844C204.124 178.17 203.388 178.502 202.692 178.826L202.652 178.833L202.226 179.028L202.185 179.035C201.057 179.516 199.881 179.964 198.795 180.438C197.815 180.811 196.883 181.217 195.903 181.59C184.506 185.963 173.6 189.044 163.422 190.753L163.422 190.755ZM77.3424 141.377C82.7292 152.854 89.2834 162.344 96.8275 169.54C104.332 176.744 112.996 181.918 122.625 184.887C132.301 187.89 143.217 188.852 155.065 187.656C167.041 186.479 180.271 183.092 194.494 177.662C195.433 177.296 196.372 176.929 197.351 176.558C198.446 176.124 199.574 175.643 200.669 175.209L201.054 175.02C201.79 174.688 202.526 174.355 203.263 174.025C203.303 174.018 203.377 173.964 203.419 173.957C203.769 173.815 204.168 173.707 204.52 173.563L204.913 173.415C205.23 173.32 205.5 173.192 205.818 173.095C212.446 170.608 218.755 167.464 224.47 163.753C229.279 160.612 233.844 157.009 238.01 153.017L238.05 153.01C242.844 148.536 246.955 143.47 250.362 137.937C250.686 137.382 251.042 136.78 251.367 136.226C253.431 132.627 255.036 128.773 256.126 124.838C256.389 123.919 256.611 123.006 256.792 122.1C256.744 121.817 256.737 121.526 256.818 121.263C258.312 115.009 258.507 108.722 257.486 102.64C256.466 96.5579 254.14 90.403 250.552 84.4188C249.8 83.1698 248.96 81.8929 248.121 80.6158C247.233 79.3053 246.265 78.0084 245.264 76.76C245.21 76.6861 245.109 76.5773 245.054 76.5037C244.796 76.2138 244.574 75.8753 244.316 75.5854C243.369 74.4108 242.388 73.2833 241.413 72.1962C238.28 68.6783 234.911 65.4917 231.392 62.6633C231.054 62.387 230.682 62.1577 230.309 61.9273C212.811 51.5652 194.059 43.4147 174.592 37.7182C173.632 37.4621 172.632 37.2139 171.631 36.9645C168.332 36.1847 165.02 35.5727 161.694 35.1304C155.812 34.3665 149.85 34.1165 143.897 34.4067C140.552 34.5936 137.145 34.9152 133.813 35.4316C124.954 36.7942 116.284 39.0411 108.015 42.18L107.974 42.1868C105.231 43.2305 102.462 44.3627 99.7926 45.6026C99.5225 45.7308 99.2527 45.8604 98.9409 45.9957C95.5764 47.811 92.362 50.0186 89.37 52.5634C82.8132 58.2078 77.542 65.3046 73.7267 73.615C69.917 81.9673 67.8998 91.0608 67.6746 100.645C67.6038 104.201 67.7511 107.804 68.1736 111.318C68.9517 117.691 70.527 124.096 72.9533 130.36C74.4036 134.036 75.8618 137.75 77.3456 141.379L77.3424 141.377Z" fill="black"/>
<path d="M207.551 65.7269C207.108 67.8025 206.893 69.2565 206.901 70.047C207.69 74.5 209.438 78.4591 212.193 81.9574C214.792 85.2733 218.1 87.3439 222.129 88.2529C223.34 88.5085 224.583 88.4656 225.86 88.1269C227.482 87.6046 228.988 86.893 230.434 86.0671C228.83 72.7872 230.431 59.97 235.251 47.6961L215.749 57.6815C210.718 60.986 207.956 63.6593 207.553 65.7281M317.861 12.0701C320.392 8.26916 319.64 6.76875 315.592 7.48969C313.572 7.8702 310.491 9.13765 306.39 11.2853L293.764 17.7812C289.796 23.45 288.702 29.5956 290.392 36.1901L311.042 18.8836C314.417 15.8986 316.707 13.639 317.861 12.0688M266.885 31.5048C261.481 40.5407 259.864 50.0259 262.072 59.9526L290.359 36.2356C288.669 29.6411 289.804 23.4887 293.732 17.8266L266.887 31.5045M262.073 59.9523C259.865 50.0256 261.484 40.5402 266.887 31.5045L235.252 47.6945C230.434 59.9682 228.833 72.7854 230.395 86.0722C231.76 85.26 233.057 84.2919 234.285 83.1682L262.072 59.9526L262.073 59.9523Z" fill="#FFF3D5"/>
<path d="M225.28 90.3892C224.063 90.5933 222.846 90.5474 221.637 90.2916C217.135 89.2962 213.4 86.9214 210.537 83.2753C207.613 79.5137 205.681 75.2109 204.838 70.4326C204.817 70.3116 204.79 70.149 204.81 70.0199C204.823 69.1 205.071 67.6004 205.521 65.3151C206.072 62.6382 208.948 59.6542 214.581 55.9572C214.655 55.9034 214.695 55.8966 214.77 55.8425L234.314 45.8501L265.949 29.6601L292.794 15.9822L305.42 9.48636C309.75 7.21726 312.952 5.9295 315.217 5.50793C316.27 5.33106 319.467 4.75316 320.869 6.89337C322.21 8.91963 320.767 11.496 319.566 13.2827C319.544 13.3141 319.521 13.3455 319.499 13.3769C318.237 15.0481 315.881 17.4032 312.356 20.4962C312.356 20.4962 312.316 20.503 312.323 20.5433L263.413 61.4777C263.373 61.4845 263.379 61.5248 263.339 61.5316L235.633 84.7336C234.329 85.9115 232.925 86.9805 231.445 87.8549L231.405 87.8617C229.844 88.7483 228.183 89.5275 226.447 90.1118L226.366 90.1254C226.009 90.2268 225.65 90.3285 225.286 90.3896L225.28 90.3892ZM208.92 69.9132C209.674 73.9132 211.287 77.5619 213.778 80.7287C216.106 83.6727 218.954 85.4875 222.551 86.3017C223.416 86.4896 224.289 86.4689 225.208 86.2303C226.234 85.8908 227.249 85.4704 228.208 84.9764C227.053 73.6223 228.189 62.5083 231.618 51.8857L216.797 59.4589C210.481 63.562 209.659 65.6183 209.539 66.1387C209.082 68.3837 208.962 69.4045 208.921 69.9116L208.92 69.9132ZM236.906 49.1242C232.856 59.7681 231.267 70.9154 232.105 82.3641C232.361 82.1538 232.651 81.8979 232.909 81.6874C232.949 81.6806 232.942 81.6403 232.983 81.6336L259.811 59.162C258.322 51.2832 259.111 43.5621 262.212 36.205L236.907 49.124L236.906 49.1242ZM268.351 33.049C265.957 37.1615 264.38 41.4284 263.641 45.7205C263.078 49.0669 262.994 52.5416 263.463 56.0891L288.057 35.4521C287.139 30.9792 287.418 26.68 288.934 22.5476L268.351 33.0476L268.351 33.049ZM295.156 19.3779C292.43 23.5047 291.266 27.7437 291.744 32.3318L309.645 17.2791C312.88 14.4435 315.101 12.2783 316.153 10.851C316.585 10.1953 316.876 9.68769 317.023 9.32993C316.733 9.33722 316.409 9.39159 315.922 9.47325C314.713 9.71773 312.178 10.519 307.274 13.093L295.156 19.3793L295.156 19.3779Z" fill="black"/>
<path d="M117.345 95.0253C116.23 92.062 114.596 89.822 112.366 88.3323C110.084 86.8186 107.923 86.4465 105.845 87.2285C103.766 88.0104 102.35 89.7305 101.669 92.3576C100.897 94.9756 101.107 97.7519 102.222 100.715C103.337 103.678 104.981 105.827 107.263 107.34C109.546 108.854 111.707 109.226 113.823 108.429C115.939 107.633 117.279 105.942 117.96 103.314C118.654 100.725 118.444 97.9482 117.345 95.0239M110.573 90.4557C111.156 90.3679 111.723 90.5944 112.263 91.0941C112.802 91.5939 113.14 92.2577 113.337 93.0178C113.497 93.7928 113.43 94.433 113.128 95.0298C112.811 95.5889 112.353 95.8917 111.772 95.9792C111.19 96.0668 110.622 95.8406 110.12 95.3273C109.58 94.8276 109.243 94.1638 109.059 93.4428C108.899 92.6678 108.951 91.9901 109.269 91.4308C109.557 90.795 110.013 90.4911 110.572 90.4574L110.573 90.4557Z" fill="black"/>
<path d="M112.302 91.08C111.762 90.5803 111.194 90.3554 110.613 90.4416C110.054 90.4754 109.612 90.8182 109.296 91.3759C108.993 91.9728 108.888 92.6278 109.086 93.3879C109.284 94.1481 109.607 94.7727 110.147 95.2725C110.687 95.7722 111.255 95.997 111.799 95.9243C112.382 95.8365 112.838 95.5327 113.155 94.9749C113.457 94.3781 113.523 93.7382 113.364 92.9629C113.18 92.2419 112.804 91.5918 112.303 91.0784L112.302 91.08Z" fill="white"/>
<path d="M112.951 110.78C110.714 111.139 108.403 110.603 106.105 109.052C103.476 107.318 101.544 104.75 100.298 101.442C99.0527 98.133 98.8226 94.8369 99.6324 91.8523C100.494 88.5401 102.349 86.3491 105.081 85.3203C107.813 84.2915 110.653 84.7167 113.484 86.6386C116.075 88.3879 118.008 90.9551 119.267 94.3029C120.527 97.6507 120.752 100.816 119.918 103.853C119.056 107.166 117.239 109.342 114.507 110.37C114.007 110.559 113.454 110.723 112.948 110.781L112.951 110.78ZM107.367 88.9404C107.122 88.9886 106.838 89.052 106.568 89.1531L106.529 89.1682C104.605 89.8927 103.943 91.6348 103.612 92.8581C102.994 95.0674 103.199 97.3629 104.169 99.9402C105.139 102.517 106.469 104.303 108.405 105.594C109.513 106.319 111.159 107.193 113.083 106.47C115.007 105.747 115.631 104.018 115.946 102.756L115.931 102.717C116.55 100.508 116.344 98.2125 115.403 95.7119C114.433 93.1332 113.074 91.2729 111.191 90.0053C110.257 89.3901 108.928 88.6598 107.364 88.9408L107.367 88.9404Z" fill="black"/>
<path d="M117.186 119.465C114.223 120.58 111.866 121.906 110.092 123.496C108.318 125.086 107.642 126.439 108.062 127.555C108.482 128.67 109.883 129.241 112.264 129.268C114.646 129.294 117.292 128.737 120.256 127.622C123.219 126.507 125.536 125.195 127.31 123.605C129.098 122.054 129.813 120.686 129.379 119.531C128.945 118.376 127.558 117.844 125.138 117.833C122.794 117.792 120.149 118.349 117.186 119.464L117.186 119.465Z" fill="#CF80A6"/>
<path d="M171.887 74.4979C170.772 71.5347 169.138 69.2946 166.908 67.8049C164.626 66.2912 162.465 65.9192 160.387 66.7011C158.308 67.4831 156.892 69.2031 156.211 71.8303C155.439 74.4483 155.649 77.2246 156.764 80.1878C157.879 83.1511 159.523 85.2994 161.805 86.8131C164.088 88.3268 166.249 88.6989 168.365 87.902C170.481 87.1052 171.86 85.4 172.541 82.7729C173.196 80.1972 172.986 77.4209 171.887 74.4965M165.154 69.9133C165.737 69.8255 166.304 70.052 166.843 70.5517C167.383 71.0514 167.721 71.7152 167.918 72.4753C168.078 73.2504 168.011 73.8905 167.708 74.4874C167.392 75.0465 166.934 75.3492 166.353 75.4368C165.771 75.5243 165.203 75.2981 164.701 74.7849C164.161 74.2852 163.824 73.6214 163.64 72.9004C163.48 72.1254 163.532 71.4477 163.85 70.8883C164.099 70.2677 164.556 69.9636 165.153 69.9149L165.154 69.9133Z" fill="black"/>
<path d="M166.844 70.5527C166.304 70.0529 165.736 69.8281 165.155 69.9143C164.596 69.9481 164.154 70.2909 163.838 70.8486C163.535 71.4454 163.43 72.1005 163.628 72.8606C163.826 73.6207 164.149 74.2454 164.689 74.7451C165.229 75.2448 165.797 75.4697 166.341 75.397C166.923 75.3092 167.38 75.0053 167.697 74.4476C167.999 73.8507 168.065 73.2108 167.906 72.4356C167.709 71.6754 167.346 71.0645 166.845 70.5511L166.844 70.5527Z" fill="white"/>
<path d="M167.494 90.253C165.257 90.6113 162.946 90.0758 160.648 88.5245C158.019 86.7904 156.087 84.2229 154.841 80.9143C153.596 77.6057 153.366 74.3096 154.175 71.3249C155.037 68.0127 156.892 65.8218 159.624 64.7929C162.356 63.7641 165.196 64.1894 168.027 66.1113C170.618 67.8606 172.551 70.4278 173.81 73.7755C175.07 77.1233 175.295 80.2887 174.461 83.326C173.599 86.6382 171.782 88.8143 169.05 89.8431C168.55 90.0314 167.997 90.1957 167.491 90.2535L167.494 90.253ZM161.91 68.413C161.665 68.4613 161.381 68.5246 161.111 68.6257L161.072 68.6409C159.148 69.3654 158.486 71.1075 158.155 72.3308C157.537 74.5401 157.742 76.8355 158.712 79.4128C159.682 81.9901 161.012 83.7752 162.948 85.0668C164.056 85.7914 165.702 86.6657 167.626 85.9426C169.55 85.2194 170.174 83.491 170.489 82.2288L170.474 82.1899C171.093 79.9807 170.887 77.6852 169.946 75.1846C168.976 72.6059 167.617 70.7455 165.733 69.478C164.8 68.8628 163.471 68.1325 161.907 68.4135L161.91 68.413Z" fill="black"/>
<path d="M171.768 98.9229C168.805 100.038 166.449 101.364 164.674 102.954C162.9 104.544 162.224 105.896 162.644 107.012C163.064 108.128 164.465 108.699 166.847 108.725C169.228 108.752 171.875 108.195 174.838 107.08C177.801 105.965 180.157 104.639 181.931 103.049C183.719 101.498 184.435 100.13 184.001 98.9753C183.567 97.8203 182.18 97.2884 179.759 97.2772C177.339 97.2661 174.693 97.8216 171.768 98.9229Z" fill="#CF80A6"/>
<path d="M223.266 128.064C218.676 128.82 214.138 128.193 209.691 126.172C205.403 124.223 201.992 121.333 199.615 117.569C198.995 116.617 199.259 115.332 200.226 114.749C201.179 114.129 202.464 114.394 203.046 115.361C205.033 118.435 207.816 120.817 211.361 122.429C216.39 124.714 221.327 124.883 226.485 122.948C231.643 121.013 235.252 117.64 237.537 112.611C239.188 109.05 239.716 105.427 239.192 101.803C239.034 100.677 239.79 99.6471 240.876 99.5034L240.915 99.4882C242.041 99.3294 243.071 100.086 243.23 101.211C243.875 105.624 243.206 110.046 241.257 114.334C238.539 120.314 234.048 124.501 227.928 126.796C226.389 127.374 224.829 127.782 223.265 128.062L223.266 128.064Z" fill="black"/>
</svg>
